STARTFONT 2.1
COMMENT
COMMENT Converted from OpenType font "alphbeta.ttf" by "otf2bdf 3.0".
COMMENT
FONT -FreeType-Alpha Beta BRK-Medium-R-Normal--44-320-100-100-P-185-ISO10646-1
SIZE 32 100 100
FONTBOUNDINGBOX 33 41 0 -7
STARTPROPERTIES 19
FOUNDRY "FreeType"
FAMILY_NAME "Alpha Beta BRK"
WEIGHT_NAME "Medium"
SLANT "R"
SETWIDTH_NAME "Normal"
ADD_STYLE_NAME ""
PIXEL_SIZE 44
POINT_SIZE 320
RESOLUTION_X 100
RESOLUTION_Y 100
SPACING "P"
AVERAGE_WIDTH 185
CHARSET_REGISTRY "ISO10646"
CHARSET_ENCODING "1"
FONT_ASCENT 33
FONT_DESCENT 6
COPYRIGHT "ÆNIGMA FONTS   [e-mail]  kentpw@norwich.net"
_OTF_FONTFILE "alphbeta.ttf"
_OTF_PSNAME "AlphaBetaBRK"
ENDPROPERTIES
CHARS 227
STARTCHAR 0020
ENCODING 32
SWIDTH 517 0
DWIDTH 23 0
BBX 0 0 0 0
BITMAP
ENDCHAR
STARTCHAR 0021
ENCODING 33
SWIDTH 225 0
DWIDTH 10 0
BBX 7 27 0 0
BITMAP
FE
FE
FE
FE
FE
FE
FE
FE
FE
FE
FE
FE
FE
FE
FE
FE
FE
FE
FE
FE
00
00
00
00
FE
FE
FE
ENDCHAR
STARTCHAR 0022
ENCODING 34
SWIDTH 427 0
DWIDTH 19 0
BBX 15 7 1 20
BITMAP
FC7E
FC7E
FC7E
1C0E
1C0E
1C0E
1C0E
ENDCHAR
STARTCHAR 0023
ENCODING 35
SWIDTH 675 0
DWIDTH 30 0
BBX 27 27 0 0
BITMAP
1FC0FE00
1FC0FE00
1FC0FE00
1FC0FE00
1FC0FE00
1FC0FE00
1FC0FE00
FFFFFFE0
FFFFFFE0
FFFFFFE0
1FC0FE00
1FC0FE00
1FC0FE00
1FC0FE00
1FC0FE00
1FC0FE00
1FC0FE00
FFFFFFE0
FFFFFFE0
FFFFFFE0
1FC0FE00
1FC0FE00
1FC0FE00
1FC0FE00
1FC0FE00
1FC0FE00
1FC0FE00
ENDCHAR
STARTCHAR 0024
ENCODING 36
SWIDTH 517 0
DWIDTH 23 0
BBX 20 41 0 -7
BITMAP
003800
003800
003800
003800
01F800
01F800
01F800
1FFF80
1FFF80
1FFF80
1FFF80
FE07F0
FE07F0
FE07F0
FE0000
FE0000
FE0000
FE3F80
FE3F80
FE3F80
1E0780
1FC7F0
1FC7F0
1FC7F0
0007F0
0007F0
0007F0
0007F0
FE07F0
FE07F0
FE07F0
1FFF80
1FFF80
1FFF80
01F800
01F800
01F800
01F800
01C000
01C000
01C000
ENDCHAR
STARTCHAR 0025
ENCODING 37
SWIDTH 652 0
DWIDTH 29 0
BBX 26 27 0 0
BITMAP
FFC07F00
FFC07F00
FFC07F00
E1C3F000
E1C3F000
E1C3F000
E1C3F000
FFC3F000
FFC3F000
FFC3F000
003F8000
003F8000
003F8000
003F8000
003F8000
003F8000
003F8000
01FC7FC0
01FC7FC0
01FC7FC0
01FC70C0
01FC70C0
01FC70C0
01FC70C0
1FC07FC0
1FC07FC0
1FC07FC0
ENDCHAR
STARTCHAR 0026
ENCODING 38
SWIDTH 517 0
DWIDTH 23 0
BBX 20 41 0 -7
BITMAP
003800
003800
003800
003800
01F800
01F800
01F800
1FFF00
1FFF00
1FFF00
FE07F0
FE07F0
FE07F0
FE0000
FE0000
FE0000
FE0000
1FF800
1FF800
1FF800
1E0000
FE0000
FE0000
FE0000
FE0000
FE0000
FE0000
FE0000
FE07F0
FE07F0
FE07F0
1FFF00
1FFF00
1FFF00
01F800
01F800
01F800
01F800
01C000
01C000
01C000
ENDCHAR
STARTCHAR 0027
ENCODING 39
SWIDTH 225 0
DWIDTH 10 0
BBX 7 7 0 20
BITMAP
FE
FE
FE
E0
E0
E0
E0
ENDCHAR
STARTCHAR 0028
ENCODING 40
SWIDTH 292 0
DWIDTH 13 0
BBX 10 27 0 0
BITMAP
1FC0
1FC0
1FC0
FE00
FE00
FE00
FE00
FE00
FE00
FE00
FE00
FE00
FE00
FE00
FE00
FE00
FE00
FE00
FE00
FE00
FE00
FE00
FE00
1E00
1FC0
1FC0
1FC0
ENDCHAR
STARTCHAR 0029
ENCODING 41
SWIDTH 292 0
DWIDTH 13 0
BBX 10 27 0 0
BITMAP
FE00
FE00
FE00
1FC0
1FC0
1FC0
1FC0
1FC0
1FC0
1FC0
1FC0
1FC0
1FC0
1FC0
1FC0
1FC0
1FC0
1FC0
1FC0
1FC0
1FC0
1FC0
1FC0
1E00
FE00
FE00
FE00
ENDCHAR
STARTCHAR 002A
ENCODING 42
SWIDTH 427 0
DWIDTH 19 0
BBX 16 17 0 10
BITMAP
01C0
01C0
01C0
01C0
E1C7
E1C7
E1C7
1FF8
1FF8
1FF8
E1C7
E1C7
E1C7
01C0
01C0
01C0
01C0
ENDCHAR
STARTCHAR 002B
ENCODING 43
SWIDTH 450 0
DWIDTH 20 0
BBX 17 17 0 7
BITMAP
01C000
01C000
01C000
01C000
01C000
01C000
01C000
FFFF80
FFFF80
FFFF80
01C000
01C000
01C000
01C000
01C000
01C000
01C000
ENDCHAR
STARTCHAR 002C
ENCODING 44
SWIDTH 225 0
DWIDTH 10 0
BBX 6 10 1 -7
BITMAP
FC
FC
FC
FC
FC
FC
FC
1C
1C
1C
ENDCHAR
STARTCHAR 002D
ENCODING 45
SWIDTH 450 0
DWIDTH 20 0
BBX 17 3 0 14
BITMAP
FFFF80
FFFF80
FFFF80
ENDCHAR
STARTCHAR 002E
ENCODING 46
SWIDTH 225 0
DWIDTH 10 0
BBX 7 3 0 0
BITMAP
FE
FE
FE
ENDCHAR
STARTCHAR 002F
ENCODING 47
SWIDTH 517 0
DWIDTH 23 0
BBX 20 27 0 0
BITMAP
0003F0
0003F0
0003F0
003F80
003F80
003F80
003F80
003F80
003F80
003F80
01FC00
01FC00
01FC00
01FC00
01FC00
01FC00
01FC00
1FC000
1FC000
1FC000
1FC000
1FC000
1FC000
1FC000
FE0000
FE0000
FE0000
ENDCHAR
STARTCHAR 0030
ENCODING 48
SWIDTH 517 0
DWIDTH 23 0
BBX 20 27 0 0
BITMAP
1FFF00
1FFF00
1FFF00
FE07F0
FE07F0
FE07F0
FE07F0
FE07F0
FE07F0
FE07F0
FE07F0
FE07F0
FE07F0
FE07F0
FE07F0
FE07F0
FE07F0
FE07F0
FE07F0
FE07F0
FE07F0
FE07F0
FE07F0
1E0700
1FFF00
1FFF00
1FFF00
ENDCHAR
STARTCHAR 0031
ENCODING 49
SWIDTH 315 0
DWIDTH 14 0
BBX 10 27 1 0
BITMAP
FFC0
FFC0
FFC0
1FC0
1FC0
1FC0
1FC0
1FC0
1FC0
1FC0
1FC0
1FC0
1FC0
1FC0
1FC0
1FC0
1FC0
1FC0
1FC0
1FC0
1FC0
1FC0
1FC0
1FC0
1FC0
1FC0
1FC0
ENDCHAR
STARTCHAR 0032
ENCODING 50
SWIDTH 517 0
DWIDTH 23 0
BBX 20 27 0 0
BITMAP
1FFF80
1FFF80
1FFF80
FE07F0
FE07F0
FE07F0
0007F0
0007F0
0007F0
0007F0
1FC7F0
1FC7F0
1FC7F0
1E4780
FE3F80
FE3F80
FE3F80
FE0000
FE0000
FE0000
FE0000
FE0000
FE0000
FE0000
FFFFF0
FFFFF0
FFFFF0
ENDCHAR
STARTCHAR 0033
ENCODING 51
SWIDTH 517 0
DWIDTH 23 0
BBX 20 27 0 0
BITMAP
1FFF00
1FFF00
1FFF00
FE07F0
FE07F0
FE07F0
0007F0
0007F0
0007F0
0007F0
01FF00
01FF00
01FF00
0007F0
0007F0
0007F0
0007F0
0007F0
0007F0
0007F0
FE07F0
FE07F0
FE07F0
1E0700
1FFF00
1FFF00
1FFF00
ENDCHAR
STARTCHAR 0034
ENCODING 52
SWIDTH 517 0
DWIDTH 23 0
BBX 20 27 0 0
BITMAP
FE07F0
FE07F0
FE07F0
FE07F0
FE07F0
FE07F0
FE07F0
FE07F0
FE07F0
FE07F0
FE3FF0
FE3FF0
FE3FF0
FE3FF0
1FC7F0
1FC7F0
1FC7F0
0007F0
0007F0
0007F0
0007F0
0007F0
0007F0
0007F0
0007F0
0007F0
0007F0
ENDCHAR
STARTCHAR 0035
ENCODING 53
SWIDTH 517 0
DWIDTH 23 0
BBX 20 27 0 0
BITMAP
FFFFF0
FFFFF0
FFFFF0
FE0000
FE0000
FE0000
FE0000
FE0000
FE0000
FE0000
FE3F80
FE3F80
FE3F80
1E0780
1FC7F0
1FC7F0
1FC7F0
0007F0
0007F0
0007F0
FE07F0
FE07F0
FE07F0
1E0780
1FFF80
1FFF80
1FFF80
ENDCHAR
STARTCHAR 0036
ENCODING 54
SWIDTH 517 0
DWIDTH 23 0
BBX 20 27 0 0
BITMAP
1FFF00
1FFF00
1FFF00
FE07F0
FE07F0
FE07F0
FE0000
FE0000
FE0000
FE0000
FE3F00
FE3F00
FE3F00
FFC7F0
FFC7F0
FFC7F0
FE07F0
FE07F0
FE07F0
FE07F0
FE07F0
FE07F0
FE07F0
1E0700
1FFF00
1FFF00
1FFF00
ENDCHAR
STARTCHAR 0037
ENCODING 55
SWIDTH 540 0
DWIDTH 24 0
BBX 20 27 1 0
BITMAP
FFFFF0
FFFFF0
FFFFF0
0007F0
0007F0
0007F0
0007F0
0007F0
0007F0
0007F0
0007F0
0007F0
0007F0
0007F0
0007F0
0007F0
0007F0
0007F0
0007F0
0007F0
0007F0
0007F0
0007F0
0007F0
0007F0
0007F0
0007F0
ENDCHAR
STARTCHAR 0038
ENCODING 56
SWIDTH 517 0
DWIDTH 23 0
BBX 20 27 0 0
BITMAP
1FFF80
1FFF80
1FFF80
FE07F0
FE07F0
FE07F0
FE07F0
FE07F0
FE07F0
FE07F0
1FC7F0
1FC7F0
1FC7F0
1E4780
FE3F80
FE3F80
FE3F80
FE07F0
FE07F0
FE07F0
FE07F0
FE07F0
FE07F0
FE07F0
1FFF80
1FFF80
1FFF80
ENDCHAR
STARTCHAR 0039
ENCODING 57
SWIDTH 517 0
DWIDTH 23 0
BBX 20 27 0 0
BITMAP
1FFF00
1FFF00
1FFF00
FE07F0
FE07F0
FE07F0
FE07F0
FE07F0
FE07F0
FE07F0
1FC7F0
1FC7F0
1FC7F0
0047F0
003FF0
003FF0
003FF0
0007F0
0007F0
0007F0
0007F0
0007F0
0007F0
0007F0
0007F0
0007F0
0007F0
ENDCHAR
STARTCHAR 003A
ENCODING 58
SWIDTH 225 0
DWIDTH 10 0
BBX 7 27 0 0
BITMAP
FE
FE
FE
00
00
00
00
00
00
00
00
00
00
00
00
00
00
00
00
00
00
00
00
00
FE
FE
FE
ENDCHAR
STARTCHAR 003B
ENCODING 59
SWIDTH 225 0
DWIDTH 10 0
BBX 7 34 0 -7
BITMAP
FE
FE
FE
00
00
00
00
00
00
00
00
00
00
00
00
00
00
00
00
00
00
00
00
00
FE
FE
FE
FE
FE
FE
FE
0E
0E
0E
ENDCHAR
STARTCHAR 003C
ENCODING 60
SWIDTH 382 0
DWIDTH 17 0
BBX 14 17 0 7
BITMAP
01FC
01FC
01FC
01C0
1FC0
1FC0
1FC0
FE00
FE00
FE00
1FC0
1FC0
1FC0
1FC0
01FC
01FC
01FC
ENDCHAR
STARTCHAR 003D
ENCODING 61
SWIDTH 450 0
DWIDTH 20 0
BBX 17 10 0 10
BITMAP
FFFF80
FFFF80
FFFF80
000000
000000
000000
000000
FFFF80
FFFF80
FFFF80
ENDCHAR
STARTCHAR 003E
ENCODING 62
SWIDTH 382 0
DWIDTH 17 0
BBX 14 17 0 7
BITMAP
FE00
FE00
FE00
1E00
1FC0
1FC0
1FC0
01FC
01FC
01FC
1FC0
1FC0
1FC0
1FC0
FE00
FE00
FE00
ENDCHAR
STARTCHAR 003F
ENCODING 63
SWIDTH 517 0
DWIDTH 23 0
BBX 20 27 0 0
BITMAP
1FFF00
1FFF00
1FFF00
FE03F0
FE03F0
FE03F0
0003F0
0003F0
0003F0
0003F0
007F00
007F00
007F00
01FC00
01FC00
01FC00
01FC00
01FC00
01FC00
01FC00
000000
000000
000000
000000
01FC00
01FC00
01FC00
ENDCHAR
STARTCHAR 0040
ENCODING 64
SWIDTH 810 0
DWIDTH 36 0
BBX 33 27 0 0
BITMAP
1FFFFFFC00
1FFFFFFC00
1FFFFFFC00
FE00003F80
FE00003F80
FE00003F80
FE00003F80
FE3FFE3F80
FE3FFE3F80
FE3FFE3F80
FE380E3F80
FE380E3F80
FE380E3F80
FE380E3F80
FE38FE3F80
FE38FE3F80
FE38FE3F80
FE3F0FFC00
FE3F0FFC00
FE3F0FFC00
FE00000000
FE00000000
FE00000000
1E00000000
1FFF000000
1FFF000000
1FFF000000
ENDCHAR
STARTCHAR 0041
ENCODING 65
SWIDTH 517 0
DWIDTH 23 0
BBX 20 27 0 0
BITMAP
1FFF00
1FFF00
1FFF00
FE07F0
FE07F0
FE07F0
FE07F0
FE07F0
FE07F0
FE07F0
FE3FF0
FE3FF0
FE3FF0
FE07F0
FFC7F0
FFC7F0
FFC7F0
FE07F0
FE07F0
FE07F0
FE07F0
FE07F0
FE07F0
FE07F0
FE07F0
FE07F0
FE07F0
ENDCHAR
STARTCHAR 0042
ENCODING 66
SWIDTH 517 0
DWIDTH 23 0
BBX 20 27 0 0
BITMAP
FFFF80
FFFF80
FFFF80
FE07F0
FE07F0
FE07F0
FE07F0
FE07F0
FE07F0
FE07F0
FE3F80
FE3F80
FE3F80
FFC7F0
FFC7F0
FFC7F0
FE07F0
FE07F0
FE07F0
FE07F0
FE07F0
FE07F0
FE07F0
FE0780
FFFF80
FFFF80
FFFF80
ENDCHAR
STARTCHAR 0043
ENCODING 67
SWIDTH 517 0
DWIDTH 23 0
BBX 20 27 0 0
BITMAP
1FFF00
1FFF00
1FFF00
FE07F0
FE07F0
FE07F0
FE0000
FE0000
FE0000
FE0000
FE0000
FE0000
FE0000
FE0000
FE0000
FE0000
FE0000
FE0000
FE0000
FE0000
FE07F0
FE07F0
FE07F0
1E0700
1FFF00
1FFF00
1FFF00
ENDCHAR
STARTCHAR 0044
ENCODING 68
SWIDTH 517 0
DWIDTH 23 0
BBX 20 27 0 0
BITMAP
FFF800
FFF800
FFF800
FE3F80
FE3F80
FE3F80
FE3F80
FE07F0
FE07F0
FE07F0
FE07F0
FE07F0
FE07F0
FE07F0
FE07F0
FE07F0
FE07F0
FE07F0
FE07F0
FE07F0
FE07F0
FE07F0
FE07F0
FE07F0
FFFF80
FFFF80
FFFF80
ENDCHAR
STARTCHAR 0045
ENCODING 69
SWIDTH 517 0
DWIDTH 23 0
BBX 20 27 0 0
BITMAP
1FFF00
1FFF00
1FFF00
FE07F0
FE07F0
FE07F0
FE0000
FE0000
FE0000
FE0000
FFF800
FFF800
FFF800
FE0000
FE0000
FE0000
FE0000
FE0000
FE0000
FE0000
FE07F0
FE07F0
FE07F0
1E0700
1FFF00
1FFF00
1FFF00
ENDCHAR
STARTCHAR 0046
ENCODING 70
SWIDTH 517 0
DWIDTH 23 0
BBX 20 27 0 0
BITMAP
1FFF00
1FFF00
1FFF00
FE07F0
FE07F0
FE07F0
FE0000
FE0000
FE0000
FE0000
FFF800
FFF800
FFF800
FE0000
FE0000
FE0000
FE0000
FE0000
FE0000
FE0000
FE0000
FE0000
FE0000
FE0000
FE0000
FE0000
FE0000
ENDCHAR
STARTCHAR 0047
ENCODING 71
SWIDTH 517 0
DWIDTH 23 0
BBX 20 27 0 0
BITMAP
1FFF00
1FFF00
1FFF00
FE07F0
FE07F0
FE07F0
FE0000
FE0000
FE0000
FE0000
FE3FF0
FE3FF0
FE3FF0
FE07F0
FE07F0
FE07F0
FE07F0
FE07F0
FE07F0
FE07F0
FE07F0
FE07F0
FE07F0
1E07F0
1FFFF0
1FFFF0
1FFFF0
ENDCHAR
STARTCHAR 0048
ENCODING 72
SWIDTH 517 0
DWIDTH 23 0
BBX 20 27 0 0
BITMAP
FE07F0
FE07F0
FE07F0
FE07F0
FE07F0
FE07F0
FE07F0
FE07F0
FE07F0
FE07F0
FE3FF0
FE3FF0
FE3FF0
FE07F0
FFC7F0
FFC7F0
FFC7F0
FE07F0
FE07F0
FE07F0
FE07F0
FE07F0
FE07F0
FE07F0
FE07F0
FE07F0
FE07F0
ENDCHAR
STARTCHAR 0049
ENCODING 73
SWIDTH 517 0
DWIDTH 23 0
BBX 20 27 0 0
BITMAP
FFFFF0
FFFFF0
FFFFF0
01FC00
01FC00
01FC00
01FC00
01FC00
01FC00
01FC00
01FC00
01FC00
01FC00
01FC00
01FC00
01FC00
01FC00
01FC00
01FC00
01FC00
01FC00
01FC00
01FC00
01FC00
FFFFF0
FFFFF0
FFFFF0
ENDCHAR
STARTCHAR 004A
ENCODING 74
SWIDTH 517 0
DWIDTH 23 0
BBX 20 27 0 0
BITMAP
0007F0
0007F0
0007F0
0007F0
0007F0
0007F0
0007F0
0007F0
0007F0
0007F0
0007F0
0007F0
0007F0
0007F0
0007F0
0007F0
0007F0
0007F0
0007F0
0007F0
0007F0
FE07F0
FE07F0
FE07F0
1FFF00
1FFF00
1FFF00
ENDCHAR
STARTCHAR 004B
ENCODING 75
SWIDTH 517 0
DWIDTH 23 0
BBX 20 27 0 0
BITMAP
FE07F0
FE07F0
FE07F0
FE07F0
FE07F0
FE07F0
FE07F0
FE07F0
FE07F0
FE07F0
FE3F80
FE3F80
FE3F80
FFC7F0
FFC7F0
FFC7F0
FE07F0
FE07F0
FE07F0
FE07F0
FE07F0
FE07F0
FE07F0
FE07F0
FE07F0
FE07F0
FE07F0
ENDCHAR
STARTCHAR 004C
ENCODING 76
SWIDTH 517 0
DWIDTH 23 0
BBX 20 27 0 0
BITMAP
FE0000
FE0000
FE0000
FE0000
FE0000
FE0000
FE0000
FE0000
FE0000
FE0000
FE0000
FE0000
FE0000
FE0000
FE0000
FE0000
FE0000
FE0000
FE0000
FE0000
FE0000
FE07F0
FE07F0
FE07F0
1FFF00
1FFF00
1FFF00
ENDCHAR
STARTCHAR 004D
ENCODING 77
SWIDTH 810 0
DWIDTH 36 0
BBX 33 27 0 0
BITMAP
FE3FF1FC00
FE3FF1FC00
FE3FF1FC00
FFC7FE3F80
FFC7FE3F80
FFC7FE3F80
FE07F03F80
FE07F03F80
FE07F03F80
FE07F03F80
FE07F03F80
FE07F03F80
FE07F03F80
FE07F03F80
FE07F03F80
FE07F03F80
FE07F03F80
FE07F03F80
FE07F03F80
FE07F03F80
FE07F03F80
FE07F03F80
FE07F03F80
FE07F03F80
FE07F03F80
FE07F03F80
FE07F03F80
ENDCHAR
STARTCHAR 004E
ENCODING 78
SWIDTH 517 0
DWIDTH 23 0
BBX 20 27 0 0
BITMAP
FE3F80
FE3F80
FE3F80
FFC7F0
FFC7F0
FFC7F0
FE07F0
FE07F0
FE07F0
FE07F0
FE07F0
FE07F0
FE07F0
FE07F0
FE07F0
FE07F0
FE07F0
FE07F0
FE07F0
FE07F0
FE07F0
FE07F0
FE07F0
FE07F0
FE07F0
FE07F0
FE07F0
ENDCHAR
STARTCHAR 004F
ENCODING 79
SWIDTH 517 0
DWIDTH 23 0
BBX 20 27 0 0
BITMAP
1FFF00
1FFF00
1FFF00
FE07F0
FE07F0
FE07F0
FE07F0
FE07F0
FE07F0
FE07F0
FE07F0
FE07F0
FE07F0
FE07F0
FE07F0
FE07F0
FE07F0
FE07F0
FE07F0
FE07F0
FE07F0
FE07F0
FE07F0
1E0700
1FFF00
1FFF00
1FFF00
ENDCHAR
STARTCHAR 0050
ENCODING 80
SWIDTH 517 0
DWIDTH 23 0
BBX 20 27 0 0
BITMAP
FFFF80
FFFF80
FFFF80
FE07F0
FE07F0
FE07F0
FE07F0
FE07F0
FE07F0
FE07F0
FE3F80
FE3F80
FE3F80
FE0000
FFC000
FFC000
FFC000
FE0000
FE0000
FE0000
FE0000
FE0000
FE0000
FE0000
FE0000
FE0000
FE0000
ENDCHAR
STARTCHAR 0051
ENCODING 81
SWIDTH 517 0
DWIDTH 23 0
BBX 20 34 0 -7
BITMAP
1FFF00
1FFF00
1FFF00
1E0700
FE07F0
FE07F0
FE07F0
FE07F0
FE07F0
FE07F0
FE07F0
FE07F0
FE07F0
FE07F0
FE07F0
FE07F0
FE07F0
FE07F0
FE07F0
FE07F0
FE07F0
FE07F0
FE07F0
FE07F0
1FFF00
1FFF00
1FFF00
01F800
01F800
01F800
01F800
01C000
01C000
01C000
ENDCHAR
STARTCHAR 0052
ENCODING 82
SWIDTH 517 0
DWIDTH 23 0
BBX 20 27 0 0
BITMAP
FFFF80
FFFF80
FFFF80
FE07F0
FE07F0
FE07F0
FE07F0
FE07F0
FE07F0
FE07F0
FE3F80
FE3F80
FE3F80
FFC7F0
FFC7F0
FFC7F0
FE07F0
FE07F0
FE07F0
FE07F0
FE07F0
FE07F0
FE07F0
FE07F0
FE07F0
FE07F0
FE07F0
ENDCHAR
STARTCHAR 0053
ENCODING 83
SWIDTH 517 0
DWIDTH 23 0
BBX 20 27 0 0
BITMAP
1FFF80
1FFF80
1FFF80
FE07F0
FE07F0
FE07F0
FE0000
FE0000
FE0000
FE0000
FE3F80
FE3F80
FE3F80
1E0780
1FC7F0
1FC7F0
1FC7F0
0007F0
0007F0
0007F0
FE07F0
FE07F0
FE07F0
1E0780
1FFF80
1FFF80
1FFF80
ENDCHAR
STARTCHAR 0054
ENCODING 84
SWIDTH 517 0
DWIDTH 23 0
BBX 20 27 0 0
BITMAP
FFFFF0
FFFFF0
FFFFF0
01FC00
01FC00
01FC00
01FC00
01FC00
01FC00
01FC00
01FC00
01FC00
01FC00
01FC00
01FC00
01FC00
01FC00
01FC00
01FC00
01FC00
01FC00
01FC00
01FC00
01FC00
01FC00
01FC00
01FC00
ENDCHAR
STARTCHAR 0055
ENCODING 85
SWIDTH 517 0
DWIDTH 23 0
BBX 20 27 0 0
BITMAP
FE07F0
FE07F0
FE07F0
FE07F0
FE07F0
FE07F0
FE07F0
FE07F0
FE07F0
FE07F0
FE07F0
FE07F0
FE07F0
FE07F0
FE07F0
FE07F0
FE07F0
FE07F0
FE07F0
FE07F0
FE07F0
FE3FF0
FE3FF0
FE3FF0
1FC7F0
1FC7F0
1FC7F0
ENDCHAR
STARTCHAR 0056
ENCODING 86
SWIDTH 517 0
DWIDTH 23 0
BBX 20 27 0 0
BITMAP
FE03F0
FE03F0
FE03F0
FE03F0
FE03F0
FE03F0
FE03F0
FE03F0
FE03F0
FE03F0
FE03F0
FE03F0
FE03F0
FE03F0
FE03F0
FE03F0
FE03F0
FE03F0
FE03F0
FE03F0
1FFF00
1FFF00
1FFF00
01FC00
01FC00
01FC00
01FC00
ENDCHAR
STARTCHAR 0057
ENCODING 87
SWIDTH 810 0
DWIDTH 36 0
BBX 33 27 0 0
BITMAP
FE07F03F80
FE07F03F80
FE07F03F80
FE07F03F80
FE07F03F80
FE07F03F80
FE07F03F80
FE07F03F80
FE07F03F80
FE07F03F80
FE07F03F80
FE07F03F80
FE07F03F80
FE07F03F80
FE07F03F80
FE07F03F80
FE07F03F80
FE07F03F80
FE07F03F80
FE07F03F80
FE3FF1FC00
FE3FF1FC00
FE3FF1FC00
1E07F1C000
1FC7FFC000
1FC7FFC000
1FC7FFC000
ENDCHAR
STARTCHAR 0058
ENCODING 88
SWIDTH 517 0
DWIDTH 23 0
BBX 20 27 0 0
BITMAP
FE03F0
FE03F0
FE03F0
FE03F0
FE03F0
FE03F0
FE03F0
1FFF00
1FFF00
1FFF00
01FC00
01FC00
01FC00
01FC00
1FFF00
1FFF00
1FFF00
FE03F0
FE03F0
FE03F0
FE03F0
FE03F0
FE03F0
FE03F0
FE03F0
FE03F0
FE03F0
ENDCHAR
STARTCHAR 0059
ENCODING 89
SWIDTH 517 0
DWIDTH 23 0
BBX 20 27 0 0
BITMAP
FE07F0
FE07F0
FE07F0
FE07F0
FE07F0
FE07F0
FE07F0
FE07F0
FE07F0
FE07F0
FE3FF0
FE3FF0
FE3FF0
1E07F0
1FC7F0
1FC7F0
1FC7F0
0007F0
0007F0
0007F0
0007F0
0007F0
0007F0
0007F0
01FF80
01FF80
01FF80
ENDCHAR
STARTCHAR 005A
ENCODING 90
SWIDTH 517 0
DWIDTH 23 0
BBX 20 27 0 0
BITMAP
FFFFF0
FFFFF0
FFFFF0
0003F0
0003F0
0003F0
0003F0
003F80
003F80
003F80
01FC00
01FC00
01FC00
1FC000
1FC000
1FC000
1FC000
FE0000
FE0000
FE0000
FE0000
FE0000
FE0000
FE0000
FFFFF0
FFFFF0
FFFFF0
ENDCHAR
STARTCHAR 005B
ENCODING 91
SWIDTH 292 0
DWIDTH 13 0
BBX 10 27 0 0
BITMAP
FFC0
FFC0
FFC0
FE00
FE00
FE00
FE00
FE00
FE00
FE00
FE00
FE00
FE00
FE00
FE00
FE00
FE00
FE00
FE00
FE00
FE00
FE00
FE00
FE00
FFC0
FFC0
FFC0
ENDCHAR
STARTCHAR 005C
ENCODING 92
SWIDTH 517 0
DWIDTH 23 0
BBX 20 27 0 0
BITMAP
FE0000
FE0000
FE0000
1FC000
1FC000
1FC000
1FC000
1FC000
1FC000
1FC000
01FC00
01FC00
01FC00
01FC00
01FC00
01FC00
01FC00
003F80
003F80
003F80
003F80
003F80
003F80
003F80
0003F0
0003F0
0003F0
ENDCHAR
STARTCHAR 005D
ENCODING 93
SWIDTH 315 0
DWIDTH 14 0
BBX 10 27 1 0
BITMAP
FFC0
FFC0
FFC0
1FC0
1FC0
1FC0
1FC0
1FC0
1FC0
1FC0
1FC0
1FC0
1FC0
1FC0
1FC0
1FC0
1FC0
1FC0
1FC0
1FC0
1FC0
1FC0
1FC0
1FC0
FFC0
FFC0
FFC0
ENDCHAR
STARTCHAR 005E
ENCODING 94
SWIDTH 315 0
DWIDTH 14 0
BBX 11 10 0 17
BITMAP
0E00
0E00
0E00
FFE0
FFE0
FFE0
FFE0
E0E0
E0E0
E0E0
ENDCHAR
STARTCHAR 005F
ENCODING 95
SWIDTH 450 0
DWIDTH 20 0
BBX 17 3 0 -7
BITMAP
FFFF80
FFFF80
FFFF80
ENDCHAR
STARTCHAR 0060
ENCODING 96
SWIDTH 225 0
DWIDTH 10 0
BBX 6 6 1 21
BITMAP
FC
FC
FC
1C
1C
1C
ENDCHAR
STARTCHAR 0061
ENCODING 97
SWIDTH 517 0
DWIDTH 23 0
BBX 20 17 0 0
BITMAP
1FFF00
1FFF00
1FFF00
FE07F0
FE07F0
FE07F0
FE07F0
FE07F0
FE07F0
FE07F0
FE3FF0
FE3FF0
FE3FF0
1E07F0
1FC7F0
1FC7F0
1FC7F0
ENDCHAR
STARTCHAR 0062
ENCODING 98
SWIDTH 517 0
DWIDTH 23 0
BBX 20 27 0 0
BITMAP
FE0000
FE0000
FE0000
FE0000
FE0000
FE0000
FE0000
FE0000
FE0000
FE0000
FE3F80
FE3F80
FE3F80
FFC7F0
FFC7F0
FFC7F0
FE07F0
FE07F0
FE07F0
FE07F0
FE07F0
FE07F0
FE07F0
FE0780
FFFF80
FFFF80
FFFF80
ENDCHAR
STARTCHAR 0063
ENCODING 99
SWIDTH 517 0
DWIDTH 23 0
BBX 20 17 0 0
BITMAP
1FFF00
1FFF00
1FFF00
1E0700
FE07F0
FE07F0
FE07F0
FE0000
FE0000
FE0000
FE07F0
FE07F0
FE07F0
1E0700
1FFF00
1FFF00
1FFF00
ENDCHAR
STARTCHAR 0064
ENCODING 100
SWIDTH 517 0
DWIDTH 23 0
BBX 20 27 0 0
BITMAP
0007F0
0007F0
0007F0
0007F0
0007F0
0007F0
0007F0
0007F0
0007F0
0007F0
1FC7F0
1FC7F0
1FC7F0
FE3FF0
FE3FF0
FE3FF0
FE07F0
FE07F0
FE07F0
FE07F0
FE07F0
FE07F0
FE07F0
1E07F0
1FFFF0
1FFFF0
1FFFF0
ENDCHAR
STARTCHAR 0065
ENCODING 101
SWIDTH 517 0
DWIDTH 23 0
BBX 20 17 0 0
BITMAP
1FFF00
1FFF00
1FFF00
FE07F0
FE07F0
FE07F0
FE07F0
FE3FF0
FE3FF0
FE3FF0
FFC000
FFC000
FFC000
1FC000
1FF800
1FF800
1FF800
ENDCHAR
STARTCHAR 0066
ENCODING 102
SWIDTH 517 0
DWIDTH 23 0
BBX 20 27 0 0
BITMAP
1FFF00
1FFF00
1FFF00
FE07F0
FE07F0
FE07F0
FE0000
FE0000
FE0000
FE0000
FFC000
FFC000
FFC000
FE0000
FE0000
FE0000
FE0000
FE0000
FE0000
FE0000
FE0000
FE0000
FE0000
FE0000
FE0000
FE0000
FE0000
ENDCHAR
STARTCHAR 0067
ENCODING 103
SWIDTH 517 0
DWIDTH 23 0
BBX 20 24 0 -7
BITMAP
1FFF80
1FFF80
1FFF80
1E0780
FE07F0
FE07F0
FE07F0
FE07F0
FE07F0
FE07F0
FE07F0
FE3FF0
FE3FF0
FE3FF0
1FC7F0
1FC7F0
1FC7F0
0007F0
0007F0
0007F0
0007F0
01FF80
01FF80
01FF80
ENDCHAR
STARTCHAR 0068
ENCODING 104
SWIDTH 517 0
DWIDTH 23 0
BBX 20 27 0 0
BITMAP
FE0000
FE0000
FE0000
FE0000
FE0000
FE0000
FE0000
FE0000
FE0000
FE0000
FE3F80
FE3F80
FE3F80
FFC7F0
FFC7F0
FFC7F0
FE07F0
FE07F0
FE07F0
FE07F0
FE07F0
FE07F0
FE07F0
FE07F0
FE07F0
FE07F0
FE07F0
ENDCHAR
STARTCHAR 0069
ENCODING 105
SWIDTH 225 0
DWIDTH 10 0
BBX 7 24 0 0
BITMAP
FE
FE
FE
00
00
00
00
FE
FE
FE
FE
FE
FE
FE
FE
FE
FE
FE
FE
FE
FE
FE
FE
FE
ENDCHAR
STARTCHAR 006A
ENCODING 106
SWIDTH 382 0
DWIDTH 17 0
BBX 14 30 0 -7
BITMAP
01FC
01FC
01FC
0000
0000
0000
01FC
01FC
01FC
01FC
01FC
01FC
01FC
01FC
01FC
01FC
01FC
01FC
01FC
01FC
01FC
01FC
01FC
01FC
01FC
01FC
01C0
FFC0
FFC0
FFC0
ENDCHAR
STARTCHAR 006B
ENCODING 107
SWIDTH 517 0
DWIDTH 23 0
BBX 20 27 0 0
BITMAP
FE0000
FE0000
FE0000
FE07F0
FE07F0
FE07F0
FE07F0
FE07F0
FE07F0
FE07F0
FE3F80
FE3F80
FE3F80
FFC7F0
FFC7F0
FFC7F0
FE07F0
FE07F0
FE07F0
FE07F0
FE07F0
FE07F0
FE07F0
FE07F0
FE07F0
FE07F0
FE07F0
ENDCHAR
STARTCHAR 006C
ENCODING 108
SWIDTH 225 0
DWIDTH 10 0
BBX 7 27 0 0
BITMAP
FE
FE
FE
FE
FE
FE
FE
FE
FE
FE
FE
FE
FE
FE
FE
FE
FE
FE
FE
FE
FE
FE
FE
FE
FE
FE
FE
ENDCHAR
STARTCHAR 006D
ENCODING 109
SWIDTH 810 0
DWIDTH 36 0
BBX 33 17 0 0
BITMAP
FE3FF1FC00
FE3FF1FC00
FE3FF1FC00
FFC7FE3F80
FFC7FE3F80
FFC7FE3F80
FE07F03F80
FE07F03F80
FE07F03F80
FE07F03F80
FE07F03F80
FE07F03F80
FE07F03F80
FE07F03F80
FE07F03F80
FE07F03F80
FE07F03F80
ENDCHAR
STARTCHAR 006E
ENCODING 110
SWIDTH 517 0
DWIDTH 23 0
BBX 20 17 0 0
BITMAP
FE3F80
FE3F80
FE3F80
FFC7F0
FFC7F0
FFC7F0
FE07F0
FE07F0
FE07F0
FE07F0
FE07F0
FE07F0
FE07F0
FE07F0
FE07F0
FE07F0
FE07F0
ENDCHAR
STARTCHAR 006F
ENCODING 111
SWIDTH 517 0
DWIDTH 23 0
BBX 20 17 0 0
BITMAP
1FFF00
1FFF00
1FFF00
FE07F0
FE07F0
FE07F0
FE07F0
FE07F0
FE07F0
FE07F0
FE07F0
FE07F0
FE07F0
1E0700
1FFF00
1FFF00
1FFF00
ENDCHAR
STARTCHAR 0070
ENCODING 112
SWIDTH 517 0
DWIDTH 23 0
BBX 20 24 0 -7
BITMAP
FFFF80
FFFF80
FFFF80
FE0780
FE07F0
FE07F0
FE07F0
FE07F0
FE07F0
FE07F0
FE07F0
FFC7F0
FFC7F0
FFC7F0
FE3F80
FE3F80
FE3F80
FE0000
FE0000
FE0000
FE0000
FE0000
FE0000
FE0000
ENDCHAR
STARTCHAR 0071
ENCODING 113
SWIDTH 517 0
DWIDTH 23 0
BBX 20 24 0 -7
BITMAP
1FFFF0
1FFFF0
1FFFF0
1E07F0
FE07F0
FE07F0
FE07F0
FE07F0
FE07F0
FE07F0
FE07F0
FE3FF0
FE3FF0
FE3FF0
1FC7F0
1FC7F0
1FC7F0
0007F0
0007F0
0007F0
0007F0
0007F0
0007F0
0007F0
ENDCHAR
STARTCHAR 0072
ENCODING 114
SWIDTH 517 0
DWIDTH 23 0
BBX 20 17 0 0
BITMAP
FE3F80
FE3F80
FE3F80
FE0780
FFC7F0
FFC7F0
FFC7F0
FE0000
FE0000
FE0000
FE0000
FE0000
FE0000
FE0000
FE0000
FE0000
FE0000
ENDCHAR
STARTCHAR 0073
ENCODING 115
SWIDTH 517 0
DWIDTH 23 0
BBX 20 17 0 0
BITMAP
1FFFF0
1FFFF0
1FFFF0
FE0000
FE0000
FE0000
FE0000
FFFFF0
FFFFF0
FFFFF0
0007F0
0007F0
0007F0
0007F0
FFFF80
FFFF80
FFFF80
ENDCHAR
STARTCHAR 0074
ENCODING 116
SWIDTH 360 0
DWIDTH 16 0
BBX 13 24 0 0
BITMAP
FE00
FE00
FE00
FE00
FE00
FE00
FE00
FFF8
FFF8
FFF8
FE00
FE00
FE00
FE00
FE00
FE00
FE00
FE00
FE00
FE00
1E00
1FF8
1FF8
1FF8
ENDCHAR
STARTCHAR 0075
ENCODING 117
SWIDTH 517 0
DWIDTH 23 0
BBX 20 17 0 0
BITMAP
FE07F0
FE07F0
FE07F0
FE07F0
FE07F0
FE07F0
FE07F0
FE07F0
FE07F0
FE07F0
FE07F0
FE3FF0
FE3FF0
FE3FF0
1FC7F0
1FC7F0
1FC7F0
ENDCHAR
STARTCHAR 0076
ENCODING 118
SWIDTH 517 0
DWIDTH 23 0
BBX 20 17 0 0
BITMAP
FE03F0
FE03F0
FE03F0
FE03F0
FE03F0
FE03F0
FE03F0
FE03F0
FE03F0
FE03F0
1FFF00
1FFF00
1FFF00
01FC00
01FC00
01FC00
01FC00
ENDCHAR
STARTCHAR 0077
ENCODING 119
SWIDTH 810 0
DWIDTH 36 0
BBX 33 17 0 0
BITMAP
FE07F03F80
FE07F03F80
FE07F03F80
FE07F03F80
FE07F03F80
FE07F03F80
FE07F03F80
FE07F03F80
FE07F03F80
FE07F03F80
FE3FF1FC00
FE3FF1FC00
FE3FF1FC00
1E07F1C000
1FC7FFC000
1FC7FFC000
1FC7FFC000
ENDCHAR
STARTCHAR 0078
ENCODING 120
SWIDTH 517 0
DWIDTH 23 0
BBX 20 17 0 0
BITMAP
FE03F0
FE03F0
FE03F0
1FFF00
1FFF00
1FFF00
01FC00
01FC00
01FC00
01FC00
1FFF00
1FFF00
1FFF00
1E0300
FE03F0
FE03F0
FE03F0
ENDCHAR
STARTCHAR 0079
ENCODING 121
SWIDTH 517 0
DWIDTH 23 0
BBX 20 24 0 -7
BITMAP
FE07F0
FE07F0
FE07F0
FE07F0
FE07F0
FE07F0
FE07F0
FE07F0
FE07F0
FE07F0
FE07F0
FE3FF0
FE3FF0
FE3FF0
1FC7F0
1FC7F0
1FC7F0
0007F0
0007F0
0007F0
000780
01FF80
01FF80
01FF80
ENDCHAR
STARTCHAR 007A
ENCODING 122
SWIDTH 517 0
DWIDTH 23 0
BBX 20 17 0 0
BITMAP
FFFFF0
FFFFF0
FFFFF0
003F80
003F80
003F80
003F80
01FC00
01FC00
01FC00
1FC000
1FC000
1FC000
1FC000
FFFFF0
FFFFF0
FFFFF0
ENDCHAR
STARTCHAR 007B
ENCODING 123
SWIDTH 382 0
DWIDTH 17 0
BBX 14 27 0 0
BITMAP
01FC
01FC
01FC
1FC0
1FC0
1FC0
1FC0
1FC0
1FC0
1FC0
FE00
FE00
FE00
1FC0
1FC0
1FC0
1FC0
1FC0
1FC0
1FC0
1FC0
1FC0
1FC0
01C0
01FC
01FC
01FC
ENDCHAR
STARTCHAR 007C
ENCODING 124
SWIDTH 225 0
DWIDTH 10 0
BBX 7 41 0 -7
BITMAP
FE
FE
FE
FE
FE
FE
FE
FE
FE
FE
FE
FE
FE
FE
FE
FE
FE
FE
FE
FE
FE
FE
FE
FE
FE
FE
FE
FE
FE
FE
FE
FE
FE
FE
FE
FE
FE
FE
FE
FE
FE
ENDCHAR
STARTCHAR 007D
ENCODING 125
SWIDTH 382 0
DWIDTH 17 0
BBX 14 27 0 0
BITMAP
FE00
FE00
FE00
1FC0
1FC0
1FC0
1FC0
1FC0
1FC0
1FC0
01FC
01FC
01FC
1FC0
1FC0
1FC0
1FC0
1FC0
1FC0
1FC0
1FC0
1FC0
1FC0
1E00
FE00
FE00
FE00
ENDCHAR
STARTCHAR 007E
ENCODING 126
SWIDTH 585 0
DWIDTH 26 0
BBX 23 10 0 10
BITMAP
1FC0FE
1FC0FE
1FC0FE
FE38FE
FE38FE
FE38FE
FE08F0
FE07F0
FE07F0
FE07F0
ENDCHAR
STARTCHAR 007F
ENCODING 127
SWIDTH 517 0
DWIDTH 23 0
BBX 20 27 0 0
BITMAP
FFFFF0
FFFFF0
FFFFF0
FFFFF0
FFFFF0
FFFFF0
FFFFF0
FFFFF0
FFFFF0
FFFFF0
FFFFF0
FFFFF0
FFFFF0
FFFFF0
FFFFF0
FFFFF0
FFFFF0
FFFFF0
FFFFF0
FFFFF0
FFFFF0
FFFFF0
FFFFF0
FFFFF0
FFFFF0
FFFFF0
FFFFF0
ENDCHAR
STARTCHAR 0080
ENCODING 128
SWIDTH 517 0
DWIDTH 23 0
BBX 20 27 0 0
BITMAP
FFFFF0
FFFFF0
FFFFF0
FFFFF0
FFFFF0
FFFFF0
FFFFF0
FFFFF0
FFFFF0
FFFFF0
FFFFF0
FFFFF0
FFFFF0
FFFFF0
FFFFF0
FFFFF0
FFFFF0
FFFFF0
FFFFF0
FFFFF0
FFFFF0
FFFFF0
FFFFF0
FFFFF0
FFFFF0
FFFFF0
FFFFF0
ENDCHAR
STARTCHAR 0081
ENCODING 129
SWIDTH 517 0
DWIDTH 23 0
BBX 20 27 0 0
BITMAP
FFFFF0
FFFFF0
FFFFF0
FFFFF0
FFFFF0
FFFFF0
FFFFF0
FFFFF0
FFFFF0
FFFFF0
FFFFF0
FFFFF0
FFFFF0
FFFFF0
FFFFF0
FFFFF0
FFFFF0
FFFFF0
FFFFF0
FFFFF0
FFFFF0
FFFFF0
FFFFF0
FFFFF0
FFFFF0
FFFFF0
FFFFF0
ENDCHAR
STARTCHAR 008D
ENCODING 141
SWIDTH 517 0
DWIDTH 23 0
BBX 20 27 0 0
BITMAP
FFFFF0
FFFFF0
FFFFF0
FFFFF0
FFFFF0
FFFFF0
FFFFF0
FFFFF0
FFFFF0
FFFFF0
FFFFF0
FFFFF0
FFFFF0
FFFFF0
FFFFF0
FFFFF0
FFFFF0
FFFFF0
FFFFF0
FFFFF0
FFFFF0
FFFFF0
FFFFF0
FFFFF0
FFFFF0
FFFFF0
FFFFF0
ENDCHAR
STARTCHAR 008E
ENCODING 142
SWIDTH 517 0
DWIDTH 23 0
BBX 20 27 0 0
BITMAP
FFFFF0
FFFFF0
FFFFF0
FFFFF0
FFFFF0
FFFFF0
FFFFF0
FFFFF0
FFFFF0
FFFFF0
FFFFF0
FFFFF0
FFFFF0
FFFFF0
FFFFF0
FFFFF0
FFFFF0
FFFFF0
FFFFF0
FFFFF0
FFFFF0
FFFFF0
FFFFF0
FFFFF0
FFFFF0
FFFFF0
FFFFF0
ENDCHAR
STARTCHAR 008F
ENCODING 143
SWIDTH 517 0
DWIDTH 23 0
BBX 20 27 0 0
BITMAP
FFFFF0
FFFFF0
FFFFF0
FFFFF0
FFFFF0
FFFFF0
FFFFF0
FFFFF0
FFFFF0
FFFFF0
FFFFF0
FFFFF0
FFFFF0
FFFFF0
FFFFF0
FFFFF0
FFFFF0
FFFFF0
FFFFF0
FFFFF0
FFFFF0
FFFFF0
FFFFF0
FFFFF0
FFFFF0
FFFFF0
FFFFF0
ENDCHAR
STARTCHAR 0090
ENCODING 144
SWIDTH 517 0
DWIDTH 23 0
BBX 20 27 0 0
BITMAP
FFFFF0
FFFFF0
FFFFF0
FFFFF0
FFFFF0
FFFFF0
FFFFF0
FFFFF0
FFFFF0
FFFFF0
FFFFF0
FFFFF0
FFFFF0
FFFFF0
FFFFF0
FFFFF0
FFFFF0
FFFFF0
FFFFF0
FFFFF0
FFFFF0
FFFFF0
FFFFF0
FFFFF0
FFFFF0
FFFFF0
FFFFF0
ENDCHAR
STARTCHAR 009D
ENCODING 157
SWIDTH 517 0
DWIDTH 23 0
BBX 20 27 0 0
BITMAP
FFFFF0
FFFFF0
FFFFF0
FFFFF0
FFFFF0
FFFFF0
FFFFF0
FFFFF0
FFFFF0
FFFFF0
FFFFF0
FFFFF0
FFFFF0
FFFFF0
FFFFF0
FFFFF0
FFFFF0
FFFFF0
FFFFF0
FFFFF0
FFFFF0
FFFFF0
FFFFF0
FFFFF0
FFFFF0
FFFFF0
FFFFF0
ENDCHAR
STARTCHAR 009E
ENCODING 158
SWIDTH 517 0
DWIDTH 23 0
BBX 20 27 0 0
BITMAP
FFFFF0
FFFFF0
FFFFF0
FFFFF0
FFFFF0
FFFFF0
FFFFF0
FFFFF0
FFFFF0
FFFFF0
FFFFF0
FFFFF0
FFFFF0
FFFFF0
FFFFF0
FFFFF0
FFFFF0
FFFFF0
FFFFF0
FFFFF0
FFFFF0
FFFFF0
FFFFF0
FFFFF0
FFFFF0
FFFFF0
FFFFF0
ENDCHAR
STARTCHAR 00A0
ENCODING 160
SWIDTH 517 0
DWIDTH 23 0
BBX 0 0 0 0
BITMAP
ENDCHAR
STARTCHAR 00A1
ENCODING 161
SWIDTH 225 0
DWIDTH 10 0
BBX 7 27 0 0
BITMAP
FE
FE
FE
00
00
00
00
FE
FE
FE
FE
FE
FE
FE
FE
FE
FE
FE
FE
FE
FE
FE
FE
FE
FE
FE
FE
ENDCHAR
STARTCHAR 00A2
ENCODING 162
SWIDTH 517 0
DWIDTH 23 0
BBX 20 31 0 -7
BITMAP
003800
003800
003800
003800
01F800
01F800
01F800
1FFF00
1FFF00
1FFF00
1FFF00
FE07F0
FE07F0
FE07F0
FE0000
FE0000
FE0000
FE0000
FE07F0
FE07F0
FE07F0
1FFF00
1FFF00
1FFF00
01F800
01F800
01F800
01F800
01C000
01C000
01C000
ENDCHAR
STARTCHAR 00A3
ENCODING 163
SWIDTH 585 0
DWIDTH 26 0
BBX 23 27 0 0
BITMAP
01FFF0
01FFF0
01FFF0
1FC0FE
1FC0FE
1FC0FE
1FC000
1FC000
1FC000
1FC000
FFF800
FFF800
FFF800
1FC000
1FC000
1FC000
1FC000
1FC000
1FC000
1FC000
1FC0FE
1FC0FE
1FC0FE
1E40F0
FE3FF0
FE3FF0
FE3FF0
ENDCHAR
STARTCHAR 00A4
ENCODING 164
SWIDTH 427 0
DWIDTH 19 0
BBX 16 17 0 7
BITMAP
E007
E007
E007
1000
0FF8
0FF8
0FF8
0E38
0E38
0E38
0FF8
0FF8
0FF8
0008
E007
E007
E007
ENDCHAR
STARTCHAR 00A5
ENCODING 165
SWIDTH 517 0
DWIDTH 23 0
BBX 20 30 0 -3
BITMAP
FE03F0
FE03F0
FE03F0
FE03F0
FE03F0
FE03F0
FE03F0
FE03F0
FE03F0
FE03F0
1FFF00
1FFF00
1FFF00
01FC00
01FC00
01FC00
01FC00
FFFFF0
FFFFF0
FFFFF0
01FC00
01FC00
01FC00
01FC00
FFFFF0
FFFFF0
FFFFF0
01FC00
01FC00
01FC00
ENDCHAR
STARTCHAR 00A6
ENCODING 166
SWIDTH 225 0
DWIDTH 10 0
BBX 7 41 0 -7
BITMAP
FE
FE
FE
FE
FE
FE
FE
FE
FE
FE
FE
FE
FE
FE
FE
FE
FE
00
00
00
00
00
00
00
FE
FE
FE
FE
FE
FE
FE
FE
FE
FE
FE
FE
FE
FE
FE
FE
FE
ENDCHAR
STARTCHAR 00A7
ENCODING 167
SWIDTH 517 0
DWIDTH 23 0
BBX 20 41 0 -7
BITMAP
1FFF80
1FFF80
1FFF80
1E0780
FE07F0
FE07F0
FE07F0
FE0000
FE0000
FE0000
FE0000
FE3F80
FE3F80
FE3F80
1FC7F0
1FC7F0
1FC7F0
FE07F0
FE07F0
FE07F0
FE07F0
FE07F0
FE07F0
FE07F0
FE3F80
FE3F80
FE3F80
1E0780
1FC7F0
1FC7F0
1FC7F0
0007F0
0007F0
0007F0
FE07F0
FE07F0
FE07F0
1E0780
1FFF80
1FFF80
1FFF80
ENDCHAR
STARTCHAR 00A8
ENCODING 168
SWIDTH 517 0
DWIDTH 23 0
BBX 20 3 0 31
BITMAP
FE07F0
FE07F0
FE07F0
ENDCHAR
STARTCHAR 00A9
ENCODING 169
SWIDTH 742 0
DWIDTH 33 0
BBX 30 27 0 0
BITMAP
1FFFFFC0
1FFFFFC0
1FFFFFC0
FE0001FC
FE0001FC
FE0001FC
FE0001FC
FE3FF1FC
FE3FF1FC
FE3FF1FC
FE3801FC
FE3801FC
FE3801FC
FE3801FC
FE3801FC
FE3801FC
FE3801FC
FE3FF1FC
FE3FF1FC
FE3FF1FC
FE0001FC
FE0001FC
FE0001FC
1E0001C0
1FFFFFC0
1FFFFFC0
1FFFFFC0
ENDCHAR
STARTCHAR 00AA
ENCODING 170
SWIDTH 292 0
DWIDTH 13 0
BBX 10 16 0 17
BITMAP
FFC0
FFC0
FFC0
01C0
01C0
01C0
FFC0
FFC0
FFC0
E1C0
E1C0
E1C0
E1C0
FFC0
FFC0
FFC0
ENDCHAR
STARTCHAR 00AB
ENCODING 171
SWIDTH 517 0
DWIDTH 23 0
BBX 20 10 0 10
BITMAP
1FC7F0
1FC7F0
1FC7F0
FE3F80
FE3F80
FE3F80
1E4780
1FC7F0
1FC7F0
1FC7F0
ENDCHAR
STARTCHAR 00AC
ENCODING 172
SWIDTH 450 0
DWIDTH 20 0
BBX 17 7 0 10
BITMAP
FFFF80
FFFF80
FFFF80
003F80
003F80
003F80
003F80
ENDCHAR
STARTCHAR 00AD
ENCODING 173
SWIDTH 225 0
DWIDTH 10 0
BBX 7 3 0 14
BITMAP
FE
FE
FE
ENDCHAR
STARTCHAR 00AE
ENCODING 174
SWIDTH 742 0
DWIDTH 33 0
BBX 30 27 0 0
BITMAP
1FFFFFC0
1FFFFFC0
1FFFFFC0
FE0001FC
FE0001FC
FE0001FC
FE0001FC
FE3FF1FC
FE3FF1FC
FE3FF1FC
FE3871FC
FE3871FC
FE3871FC
FE3871FC
FE3F81FC
FE3F81FC
FE3F81FC
FE3871FC
FE3871FC
FE3871FC
FE0001FC
FE0001FC
FE0001FC
1E0001C0
1FFFFFC0
1FFFFFC0
1FFFFFC0
ENDCHAR
STARTCHAR 00AF
ENCODING 175
SWIDTH 450 0
DWIDTH 20 0
BBX 17 3 0 31
BITMAP
FFFF80
FFFF80
FFFF80
ENDCHAR
STARTCHAR 00B0
ENCODING 176
SWIDTH 292 0
DWIDTH 13 0
BBX 10 10 0 24
BITMAP
FFC0
FFC0
FFC0
E1C0
E1C0
E1C0
E1C0
FFC0
FFC0
FFC0
ENDCHAR
STARTCHAR 00B1
ENCODING 177
SWIDTH 450 0
DWIDTH 20 0
BBX 17 24 0 3
BITMAP
01C000
01C000
01C000
01C000
01C000
01C000
01C000
FFFF80
FFFF80
FFFF80
01C000
01C000
01C000
01C000
01C000
01C000
01C000
000000
000000
000000
000000
FFFF80
FFFF80
FFFF80
ENDCHAR
STARTCHAR 00B2
ENCODING 178
SWIDTH 292 0
DWIDTH 13 0
BBX 10 16 0 17
BITMAP
FFC0
FFC0
FFC0
01C0
01C0
01C0
FFC0
FFC0
FFC0
E000
E000
E000
E000
FFC0
FFC0
FFC0
ENDCHAR
STARTCHAR 00B3
ENCODING 179
SWIDTH 315 0
DWIDTH 14 0
BBX 9 16 1 17
BITMAP
FF80
FF80
FF80
0380
0380
0380
1F80
1F80
1F80
0380
0380
0380
0380
FF80
FF80
FF80
ENDCHAR
STARTCHAR 00B4
ENCODING 180
SWIDTH 225 0
DWIDTH 10 0
BBX 7 7 0 27
BITMAP
0E
0E
0E
00
E0
E0
E0
ENDCHAR
STARTCHAR 00B5
ENCODING 181
SWIDTH 517 0
DWIDTH 23 0
BBX 20 24 0 -7
BITMAP
FE07F0
FE07F0
FE07F0
FE07F0
FE07F0
FE07F0
FE07F0
FE07F0
FE07F0
FE07F0
FE07F0
FFC7F0
FFC7F0
FFC7F0
FE3F80
FE3F80
FE3F80
FE0000
FE0000
FE0000
FE0000
FE0000
FE0000
FE0000
ENDCHAR
STARTCHAR 00B6
ENCODING 182
SWIDTH 517 0
DWIDTH 23 0
BBX 20 27 0 0
BITMAP
1FFFF0
1FFFF0
1FFFF0
FFF870
FFF870
FFF870
FFF870
FFF870
FFF870
FFF870
1FF870
1FF870
1FF870
003870
003870
003870
003870
003870
003870
003870
003870
003870
003870
003870
003870
003870
003870
ENDCHAR
STARTCHAR 00B7
ENCODING 183
SWIDTH 292 0
DWIDTH 13 0
BBX 10 10 0 10
BITMAP
FFC0
FFC0
FFC0
FFC0
FFC0
FFC0
FFC0
FFC0
FFC0
FFC0
ENDCHAR
STARTCHAR 00B8
ENCODING 184
SWIDTH 225 0
DWIDTH 10 0
BBX 6 7 1 -7
BITMAP
1C
1C
1C
1C
FC
FC
FC
ENDCHAR
STARTCHAR 00B9
ENCODING 185
SWIDTH 247 0
DWIDTH 11 0
BBX 6 16 1 17
BITMAP
FC
FC
FC
1C
1C
1C
1C
1C
1C
1C
1C
1C
1C
1C
1C
1C
ENDCHAR
STARTCHAR 00BA
ENCODING 186
SWIDTH 292 0
DWIDTH 13 0
BBX 10 16 0 17
BITMAP
FFC0
FFC0
FFC0
E1C0
E1C0
E1C0
E1C0
E1C0
E1C0
E1C0
E1C0
E1C0
E1C0
FFC0
FFC0
FFC0
ENDCHAR
STARTCHAR 00BB
ENCODING 187
SWIDTH 517 0
DWIDTH 23 0
BBX 20 10 0 10
BITMAP
FE3F80
FE3F80
FE3F80
1FC7F0
1FC7F0
1FC7F0
1E4780
FE3F80
FE3F80
FE3F80
ENDCHAR
STARTCHAR 00BC
ENCODING 188
SWIDTH 675 0
DWIDTH 30 0
BBX 26 34 1 -3
BITMAP
FC000000
FC000000
FC000000
1C000000
1C007E00
1C007E00
1C007E00
1C07F000
1C07F000
1C07F000
1C07F000
1C07F000
1C07F000
003F8000
003F8000
003F8000
003F8000
003F8000
003F8000
003F8000
03F871C0
03F871C0
03F871C0
03F871C0
03F871C0
03F871C0
03F871C0
1FC07FC0
1FC07FC0
1FC07FC0
000001C0
000001C0
000001C0
000001C0
ENDCHAR
STARTCHAR 00BD
ENCODING 189
SWIDTH 675 0
DWIDTH 30 0
BBX 26 34 1 -3
BITMAP
FC000000
FC000000
FC000000
1C000000
1C007E00
1C007E00
1C007E00
1C07F000
1C07F000
1C07F000
1C07F000
1C07F000
1C07F000
003F8000
003F8000
003F8000
003F8000
003F8000
003F8000
003F8000
003F8000
03F87FC0
03F87FC0
03F87FC0
03F801C0
03F801C0
03F801C0
1FC07E00
1FC07E00
1FC07E00
00007E00
00007FC0
00007FC0
00007FC0
ENDCHAR
STARTCHAR 00BE
ENCODING 190
SWIDTH 675 0
DWIDTH 30 0
BBX 26 34 1 -3
BITMAP
FFC00000
FFC00000
FFC00000
1FC00000
1FC07E00
1FC07E00
1FC07E00
01C3F000
01C3F000
01C3F000
FFC3F000
FFC3F000
FFC3F000
003F8000
003F8000
003F8000
003F8000
003F8000
003F8000
003F8000
01FC71C0
01FC71C0
01FC71C0
01FC71C0
01FC71C0
01FC71C0
01FC71C0
1FC07FC0
1FC07FC0
1FC07FC0
000001C0
000001C0
000001C0
000001C0
ENDCHAR
STARTCHAR 00BF
ENCODING 191
SWIDTH 517 0
DWIDTH 23 0
BBX 20 27 0 0
BITMAP
01FC00
01FC00
01FC00
000000
000000
000000
000000
01FC00
01FC00
01FC00
01FC00
01FC00
01FC00
1FC000
1FC000
1FC000
FE0000
FE0000
FE0000
FE0000
FE03F0
FE03F0
FE03F0
1E0300
1FFF00
1FFF00
1FFF00
ENDCHAR
STARTCHAR 00C0
ENCODING 192
SWIDTH 517 0
DWIDTH 23 0
BBX 20 34 0 0
BITMAP
01C000
01C000
01C000
003800
003800
003800
003800
1FFF00
1FFF00
1FFF00
FE07F0
FE07F0
FE07F0
FE07F0
FE07F0
FE07F0
FE07F0
FE3FF0
FE3FF0
FE3FF0
FE07F0
FFC7F0
FFC7F0
FFC7F0
FE07F0
FE07F0
FE07F0
FE07F0
FE07F0
FE07F0
FE07F0
FE07F0
FE07F0
FE07F0
ENDCHAR
STARTCHAR 00C1
ENCODING 193
SWIDTH 517 0
DWIDTH 23 0
BBX 20 34 0 0
BITMAP
003800
003800
003800
01C000
01C000
01C000
01C000
1FFF00
1FFF00
1FFF00
FE07F0
FE07F0
FE07F0
FE07F0
FE07F0
FE07F0
FE07F0
FE3FF0
FE3FF0
FE3FF0
FE07F0
FFC7F0
FFC7F0
FFC7F0
FE07F0
FE07F0
FE07F0
FE07F0
FE07F0
FE07F0
FE07F0
FE07F0
FE07F0
FE07F0
ENDCHAR
STARTCHAR 00C2
ENCODING 194
SWIDTH 540 0
DWIDTH 24 0
BBX 20 34 0 0
BITMAP
01FC00
01FC00
01FC00
0E0300
0E0300
0E0300
0E0300
0FFF00
0FFF00
0FFF00
FE03F0
FE03F0
FE03F0
FE03F0
FE03F0
FE03F0
FE03F0
FE3FF0
FE3FF0
FE3FF0
FE03F0
FFC3F0
FFC3F0
FFC3F0
FE03F0
FE03F0
FE03F0
FE03F0
FE03F0
FE03F0
FE03F0
FE03F0
FE03F0
FE03F0
ENDCHAR
STARTCHAR 00C3
ENCODING 195
SWIDTH 517 0
DWIDTH 23 0
BBX 20 34 0 0
BITMAP
0FC700
0FC700
0FC700
0E3F00
0E3F00
0E3F00
0E3F00
0FFF00
0FFF00
0FFF00
FE07F0
FE07F0
FE07F0
FE07F0
FE07F0
FE07F0
FE07F0
FE3FF0
FE3FF0
FE3FF0
FE07F0
FFC7F0
FFC7F0
FFC7F0
FE07F0
FE07F0
FE07F0
FE07F0
FE07F0
FE07F0
FE07F0
FE07F0
FE07F0
FE07F0
ENDCHAR
STARTCHAR 00C4
ENCODING 196
SWIDTH 517 0
DWIDTH 23 0
BBX 20 34 0 0
BITMAP
FE07F0
FE07F0
FE07F0
000000
000000
000000
000000
1FFF00
1FFF00
1FFF00
FE07F0
FE07F0
FE07F0
FE07F0
FE07F0
FE07F0
FE07F0
FE3FF0
FE3FF0
FE3FF0
FE07F0
FFC7F0
FFC7F0
FFC7F0
FE07F0
FE07F0
FE07F0
FE07F0
FE07F0
FE07F0
FE07F0
FE07F0
FE07F0
FE07F0
ENDCHAR
STARTCHAR 00C5
ENCODING 197
SWIDTH 517 0
DWIDTH 23 0
BBX 20 34 0 0
BITMAP
0FFF00
0FFF00
0FFF00
0E0700
0E0700
0E0700
0E0700
0FFF00
0FFF00
0FFF00
FE07F0
FE07F0
FE07F0
FE07F0
FE07F0
FE07F0
FE07F0
FE3FF0
FE3FF0
FE3FF0
FE07F0
FFC7F0
FFC7F0
FFC7F0
FE07F0
FE07F0
FE07F0
FE07F0
FE07F0
FE07F0
FE07F0
FE07F0
FE07F0
FE07F0
ENDCHAR
STARTCHAR 00C6
ENCODING 198
SWIDTH 810 0
DWIDTH 36 0
BBX 33 27 0 0
BITMAP
1FFFFFFC00
1FFFFFFC00
1FFFFFFC00
FE07F01F80
FE07F01F80
FE07F01F80
FE07F00000
FE07F00000
FE07F00000
FE07F00000
FE3FFFE000
FE3FFFE000
FE3FFFE000
FE07F00000
FFC7F00000
FFC7F00000
FFC7F00000
FE07F00000
FE07F00000
FE07F00000
FE07F01F80
FE07F01F80
FE07F01F80
FE00701C00
FE007FFC00
FE007FFC00
FE007FFC00
ENDCHAR
STARTCHAR 00C7
ENCODING 199
SWIDTH 517 0
DWIDTH 23 0
BBX 20 34 0 -7
BITMAP
1FFF00
1FFF00
1FFF00
1E0700
FE07F0
FE07F0
FE07F0
FE0000
FE0000
FE0000
FE0000
FE0000
FE0000
FE0000
FE0000
FE0000
FE0000
FE0000
FE0000
FE0000
FE0000
FE07F0
FE07F0
FE07F0
1FFF00
1FFF00
1FFF00
003800
003800
003800
003800
01F800
01F800
01F800
ENDCHAR
STARTCHAR 00C8
ENCODING 200
SWIDTH 517 0
DWIDTH 23 0
BBX 20 34 0 0
BITMAP
01C000
01C000
01C000
003800
003800
003800
003800
1FFF00
1FFF00
1FFF00
FE07F0
FE07F0
FE07F0
FE0000
FE0000
FE0000
FE0000
FFF800
FFF800
FFF800
FE0000
FE0000
FE0000
FE0000
FE0000
FE0000
FE0000
FE07F0
FE07F0
FE07F0
1E0700
1FFF00
1FFF00
1FFF00
ENDCHAR
STARTCHAR 00C9
ENCODING 201
SWIDTH 517 0
DWIDTH 23 0
BBX 20 34 0 0
BITMAP
003800
003800
003800
01C000
01C000
01C000
01C000
1FFF00
1FFF00
1FFF00
FE07F0
FE07F0
FE07F0
FE0000
FE0000
FE0000
FE0000
FFF800
FFF800
FFF800
FE0000
FE0000
FE0000
FE0000
FE0000
FE0000
FE0000
FE07F0
FE07F0
FE07F0
1E0700
1FFF00
1FFF00
1FFF00
ENDCHAR
STARTCHAR 00CA
ENCODING 202
SWIDTH 540 0
DWIDTH 24 0
BBX 20 34 0 0
BITMAP
01FC00
01FC00
01FC00
0E0300
0E0300
0E0300
0E0300
0FFF00
0FFF00
0FFF00
FE03F0
FE03F0
FE03F0
FE0000
FE0000
FE0000
FE0000
FFFC00
FFFC00
FFFC00
FE0000
FE0000
FE0000
FE0000
FE0000
FE0000
FE0000
FE03F0
FE03F0
FE03F0
0E0300
0FFF00
0FFF00
0FFF00
ENDCHAR
STARTCHAR 00CB
ENCODING 203
SWIDTH 517 0
DWIDTH 23 0
BBX 20 34 0 0
BITMAP
FE07F0
FE07F0
FE07F0
000000
000000
000000
000000
1FFF00
1FFF00
1FFF00
FE07F0
FE07F0
FE07F0
FE0000
FE0000
FE0000
FE0000
FFF800
FFF800
FFF800
FE0000
FE0000
FE0000
FE0000
FE0000
FE0000
FE0000
FE07F0
FE07F0
FE07F0
1E0700
1FFF00
1FFF00
1FFF00
ENDCHAR
STARTCHAR 00CC
ENCODING 204
SWIDTH 517 0
DWIDTH 23 0
BBX 20 34 0 0
BITMAP
01C000
01C000
01C000
003800
003800
003800
003800
FFFFF0
FFFFF0
FFFFF0
01F800
01F800
01F800
01F800
01F800
01F800
01F800
01F800
01F800
01F800
01F800
01F800
01F800
01F800
01F800
01F800
01F800
01F800
01F800
01F800
01F800
FFFFF0
FFFFF0
FFFFF0
ENDCHAR
STARTCHAR 00CD
ENCODING 205
SWIDTH 517 0
DWIDTH 23 0
BBX 20 34 0 0
BITMAP
003800
003800
003800
01C000
01C000
01C000
01C000
FFFFF0
FFFFF0
FFFFF0
01F800
01F800
01F800
01F800
01F800
01F800
01F800
01F800
01F800
01F800
01F800
01F800
01F800
01F800
01F800
01F800
01F800
01F800
01F800
01F800
01F800
FFFFF0
FFFFF0
FFFFF0
ENDCHAR
STARTCHAR 00CE
ENCODING 206
SWIDTH 517 0
DWIDTH 23 0
BBX 20 34 0 0
BITMAP
01FC00
01FC00
01FC00
0E0300
0E0300
0E0300
0E0300
FFFFF0
FFFFF0
FFFFF0
01FC00
01FC00
01FC00
01FC00
01FC00
01FC00
01FC00
01FC00
01FC00
01FC00
01FC00
01FC00
01FC00
01FC00
01FC00
01FC00
01FC00
01FC00
01FC00
01FC00
01FC00
FFFFF0
FFFFF0
FFFFF0
ENDCHAR
STARTCHAR 00CF
ENCODING 207
SWIDTH 540 0
DWIDTH 24 0
BBX 20 34 0 0
BITMAP
FE03F0
FE03F0
FE03F0
000000
000000
000000
000000
FFFFF0
FFFFF0
FFFFF0
01FC00
01FC00
01FC00
01FC00
01FC00
01FC00
01FC00
01FC00
01FC00
01FC00
01FC00
01FC00
01FC00
01FC00
01FC00
01FC00
01FC00
01FC00
01FC00
01FC00
01FC00
FFFFF0
FFFFF0
FFFFF0
ENDCHAR
STARTCHAR 00D0
ENCODING 208
SWIDTH 585 0
DWIDTH 26 0
BBX 23 27 0 0
BITMAP
1FFF80
1FFF80
1FFF80
1FC7F0
1FC7F0
1FC7F0
1FC7F0
1FC07E
1FC07E
1FC07E
FFF87E
FFF87E
FFF87E
1FC07E
1FC07E
1FC07E
1FC07E
1FC07E
1FC07E
1FC07E
1FC07E
1FC07E
1FC07E
1FC07E
1FFFF0
1FFFF0
1FFFF0
ENDCHAR
STARTCHAR 00D1
ENCODING 209
SWIDTH 517 0
DWIDTH 23 0
BBX 20 34 0 0
BITMAP
0FC700
0FC700
0FC700
0E3F00
0E3F00
0E3F00
0E3F00
FE3F00
FE3F00
FE3F00
FFC7F0
FFC7F0
FFC7F0
FE07F0
FE07F0
FE07F0
FE07F0
FE07F0
FE07F0
FE07F0
FE07F0
FE07F0
FE07F0
FE07F0
FE07F0
FE07F0
FE07F0
FE07F0
FE07F0
FE07F0
FE07F0
FE07F0
FE07F0
FE07F0
ENDCHAR
STARTCHAR 00D2
ENCODING 210
SWIDTH 517 0
DWIDTH 23 0
BBX 20 34 0 0
BITMAP
01C000
01C000
01C000
003800
003800
003800
003800
1FFF00
1FFF00
1FFF00
FE07F0
FE07F0
FE07F0
FE07F0
FE07F0
FE07F0
FE07F0
FE07F0
FE07F0
FE07F0
FE07F0
FE07F0
FE07F0
FE07F0
FE07F0
FE07F0
FE07F0
FE07F0
FE07F0
FE07F0
1E0700
1FFF00
1FFF00
1FFF00
ENDCHAR
STARTCHAR 00D3
ENCODING 211
SWIDTH 517 0
DWIDTH 23 0
BBX 20 34 0 0
BITMAP
003800
003800
003800
01C000
01C000
01C000
01C000
1FFF00
1FFF00
1FFF00
FE07F0
FE07F0
FE07F0
FE07F0
FE07F0
FE07F0
FE07F0
FE07F0
FE07F0
FE07F0
FE07F0
FE07F0
FE07F0
FE07F0
FE07F0
FE07F0
FE07F0
FE07F0
FE07F0
FE07F0
1E0700
1FFF00
1FFF00
1FFF00
ENDCHAR
STARTCHAR 00D4
ENCODING 212
SWIDTH 540 0
DWIDTH 24 0
BBX 20 34 0 0
BITMAP
01FC00
01FC00
01FC00
0E0300
0E0300
0E0300
0E0300
0FFF00
0FFF00
0FFF00
FE03F0
FE03F0
FE03F0
FE03F0
FE03F0
FE03F0
FE03F0
FE03F0
FE03F0
FE03F0
FE03F0
FE03F0
FE03F0
FE03F0
FE03F0
FE03F0
FE03F0
FE03F0
FE03F0
FE03F0
0E0300
0FFF00
0FFF00
0FFF00
ENDCHAR
STARTCHAR 00D5
ENCODING 213
SWIDTH 517 0
DWIDTH 23 0
BBX 20 34 0 0
BITMAP
0FC700
0FC700
0FC700
0E3F00
0E3F00
0E3F00
0E3F00
0FFF00
0FFF00
0FFF00
FE07F0
FE07F0
FE07F0
FE07F0
FE07F0
FE07F0
FE07F0
FE07F0
FE07F0
FE07F0
FE07F0
FE07F0
FE07F0
FE07F0
FE07F0
FE07F0
FE07F0
FE07F0
FE07F0
FE07F0
0E0700
0FFF00
0FFF00
0FFF00
ENDCHAR
STARTCHAR 00D6
ENCODING 214
SWIDTH 517 0
DWIDTH 23 0
BBX 20 34 0 0
BITMAP
FE07F0
FE07F0
FE07F0
000000
000000
000000
000000
1FFF00
1FFF00
1FFF00
FE07F0
FE07F0
FE07F0
FE07F0
FE07F0
FE07F0
FE07F0
FE07F0
FE07F0
FE07F0
FE07F0
FE07F0
FE07F0
FE07F0
FE07F0
FE07F0
FE07F0
FE07F0
FE07F0
FE07F0
1E0700
1FFF00
1FFF00
1FFF00
ENDCHAR
STARTCHAR 00D7
ENCODING 215
SWIDTH 427 0
DWIDTH 19 0
BBX 16 17 0 7
BITMAP
E007
E007
E007
1000
0E38
0E38
0E38
01C0
01C0
01C0
0040
0E38
0E38
0E38
E007
E007
E007
ENDCHAR
STARTCHAR 00D8
ENCODING 216
SWIDTH 517 0
DWIDTH 23 0
BBX 20 41 0 -7
BITMAP
000070
000070
000070
0003F0
0003F0
0003F0
0003F0
1FFFF0
1FFFF0
1FFFF0
FE03F0
FE03F0
FE03F0
FE03F0
FE03F0
FE03F0
FE03F0
FE3FF0
FE3FF0
FE3FF0
FE03F0
FFC3F0
FFC3F0
FFC3F0
FE03F0
FE03F0
FE03F0
FE03F0
FE03F0
FE03F0
FE03F0
FFFF80
FFFF80
FFFF80
FE0000
FE0000
FE0000
FE0000
E00000
E00000
E00000
ENDCHAR
STARTCHAR 00D9
ENCODING 217
SWIDTH 517 0
DWIDTH 23 0
BBX 20 34 0 0
BITMAP
01C000
01C000
01C000
004000
003800
003800
003800
FE07F0
FE07F0
FE07F0
FE07F0
FE07F0
FE07F0
FE07F0
FE07F0
FE07F0
FE07F0
FE07F0
FE07F0
FE07F0
FE07F0
FE07F0
FE07F0
FE07F0
FE07F0
FE07F0
FE07F0
FE07F0
FE3FF0
FE3FF0
FE3FF0
1FC7F0
1FC7F0
1FC7F0
ENDCHAR
STARTCHAR 00DA
ENCODING 218
SWIDTH 517 0
DWIDTH 23 0
BBX 20 34 0 0
BITMAP
003800
003800
003800
000000
01C000
01C000
01C000
FE07F0
FE07F0
FE07F0
FE07F0
FE07F0
FE07F0
FE07F0
FE07F0
FE07F0
FE07F0
FE07F0
FE07F0
FE07F0
FE07F0
FE07F0
FE07F0
FE07F0
FE07F0
FE07F0
FE07F0
FE07F0
FE3FF0
FE3FF0
FE3FF0
1FC7F0
1FC7F0
1FC7F0
ENDCHAR
STARTCHAR 00DB
ENCODING 219
SWIDTH 540 0
DWIDTH 24 0
BBX 20 34 1 0
BITMAP
03F800
03F800
03F800
1C0700
1C0700
1C0700
1C0700
FC07F0
FC07F0
FC07F0
FC07F0
FC07F0
FC07F0
FC07F0
FC07F0
FC07F0
FC07F0
FC07F0
FC07F0
FC07F0
FC07F0
FC07F0
FC07F0
FC07F0
FC07F0
FC07F0
FC07F0
FC07F0
FC3FF0
FC3FF0
FC3FF0
1FC7F0
1FC7F0
1FC7F0
ENDCHAR
STARTCHAR 00DC
ENCODING 220
SWIDTH 517 0
DWIDTH 23 0
BBX 20 34 0 0
BITMAP
FE07F0
FE07F0
FE07F0
000000
000000
000000
000000
FE07F0
FE07F0
FE07F0
FE07F0
FE07F0
FE07F0
FE07F0
FE07F0
FE07F0
FE07F0
FE07F0
FE07F0
FE07F0
FE07F0
FE07F0
FE07F0
FE07F0
FE07F0
FE07F0
FE07F0
FE07F0
FE3FF0
FE3FF0
FE3FF0
1FC7F0
1FC7F0
1FC7F0
ENDCHAR
STARTCHAR 00DD
ENCODING 221
SWIDTH 517 0
DWIDTH 23 0
BBX 20 34 0 0
BITMAP
003800
003800
003800
000000
01C000
01C000
01C000
FE07F0
FE07F0
FE07F0
FE07F0
FE07F0
FE07F0
FE07F0
FE07F0
FE07F0
FE07F0
FE3FF0
FE3FF0
FE3FF0
1E07F0
1FC7F0
1FC7F0
1FC7F0
0007F0
0007F0
0007F0
0007F0
0007F0
0007F0
0007F0
01FF80
01FF80
01FF80
ENDCHAR
STARTCHAR 00DE
ENCODING 222
SWIDTH 517 0
DWIDTH 23 0
BBX 20 27 0 0
BITMAP
FE0000
FE0000
FE0000
FE3F80
FE3F80
FE3F80
FE0780
FFC7F0
FFC7F0
FFC7F0
FE07F0
FE07F0
FE07F0
FE07F0
FE07F0
FE07F0
FE07F0
FFC7F0
FFC7F0
FFC7F0
FE3F80
FE3F80
FE3F80
FE0000
FE0000
FE0000
FE0000
ENDCHAR
STARTCHAR 00DF
ENCODING 223
SWIDTH 517 0
DWIDTH 23 0
BBX 20 27 0 0
BITMAP
1FFF00
1FFF00
1FFF00
FE07F0
FE07F0
FE07F0
FE07F0
FE07F0
FE07F0
FE07F0
FE3F00
FE3F00
FE3F00
FFC7F0
FFC7F0
FFC7F0
FE07F0
FE07F0
FE07F0
FE07F0
FE07F0
FE07F0
FE07F0
FE0700
FE3F00
FE3F00
FE3F00
ENDCHAR
STARTCHAR 00E0
ENCODING 224
SWIDTH 517 0
DWIDTH 23 0
BBX 20 27 0 0
BITMAP
01C000
01C000
01C000
003800
003800
003800
000000
000000
000000
000000
1FFF00
1FFF00
1FFF00
FE07F0
FE07F0
FE07F0
FE07F0
FE07F0
FE07F0
FE07F0
FE3FF0
FE3FF0
FE3FF0
1E07F0
1FC7F0
1FC7F0
1FC7F0
ENDCHAR
STARTCHAR 00E1
ENCODING 225
SWIDTH 517 0
DWIDTH 23 0
BBX 20 27 0 0
BITMAP
003800
003800
003800
01C000
01C000
01C000
000000
000000
000000
000000
1FFF00
1FFF00
1FFF00
FE07F0
FE07F0
FE07F0
FE07F0
FE07F0
FE07F0
FE07F0
FE3FF0
FE3FF0
FE3FF0
1E07F0
1FC7F0
1FC7F0
1FC7F0
ENDCHAR
STARTCHAR 00E2
ENCODING 226
SWIDTH 540 0
DWIDTH 24 0
BBX 20 27 0 0
BITMAP
01FC00
01FC00
01FC00
0E0300
0E0300
0E0300
000000
000000
000000
000000
0FFF00
0FFF00
0FFF00
FE03F0
FE03F0
FE03F0
FE03F0
FE03F0
FE03F0
FE03F0
FE1FF0
FE1FF0
FE1FF0
0E03F0
0FE3F0
0FE3F0
0FE3F0
ENDCHAR
STARTCHAR 00E3
ENCODING 227
SWIDTH 517 0
DWIDTH 23 0
BBX 20 27 0 0
BITMAP
0FE700
0FE700
0FE700
0E1F00
0E1F00
0E1F00
000000
000000
000000
000000
0FFF00
0FFF00
0FFF00
FE07F0
FE07F0
FE07F0
FE07F0
FE07F0
FE07F0
FE07F0
FE1FF0
FE1FF0
FE1FF0
0E07F0
0FE7F0
0FE7F0
0FE7F0
ENDCHAR
STARTCHAR 00E4
ENCODING 228
SWIDTH 517 0
DWIDTH 23 0
BBX 20 27 0 0
BITMAP
FE07F0
FE07F0
FE07F0
000000
000000
000000
000000
000000
000000
000000
1FFF00
1FFF00
1FFF00
FE07F0
FE07F0
FE07F0
FE07F0
FE07F0
FE07F0
FE07F0
FE3FF0
FE3FF0
FE3FF0
1E07F0
1FC7F0
1FC7F0
1FC7F0
ENDCHAR
STARTCHAR 00E5
ENCODING 229
SWIDTH 517 0
DWIDTH 23 0
BBX 20 30 0 0
BITMAP
0FFF00
0FFF00
0FFF00
0E0700
0E0700
0E0700
0FFF00
0FFF00
0FFF00
000000
000000
000000
000000
0FFF00
0FFF00
0FFF00
FE07F0
FE07F0
FE07F0
FE07F0
FE07F0
FE07F0
FE07F0
FE1FF0
FE1FF0
FE1FF0
0E07F0
0FE7F0
0FE7F0
0FE7F0
ENDCHAR
STARTCHAR 00E6
ENCODING 230
SWIDTH 810 0
DWIDTH 36 0
BBX 33 17 0 0
BITMAP
1FFFFFFC00
1FFFFFFC00
1FFFFFFC00
FE07F03F80
FE07F03F80
FE07F03F80
FE07F03F80
FE07F1FF80
FE07F1FF80
FE07F1FF80
FE3FFE0000
FE3FFE0000
FE3FFE0000
1E07FE0000
1FC7FFC000
1FC7FFC000
1FC7FFC000
ENDCHAR
STARTCHAR 00E7
ENCODING 231
SWIDTH 517 0
DWIDTH 23 0
BBX 20 24 0 -7
BITMAP
1FFF00
1FFF00
1FFF00
1E0700
FE07F0
FE07F0
FE07F0
FE0000
FE0000
FE0000
FE0000
FE07F0
FE07F0
FE07F0
1FFF00
1FFF00
1FFF00
003800
003800
003800
003800
01F800
01F800
01F800
ENDCHAR
STARTCHAR 00E8
ENCODING 232
SWIDTH 517 0
DWIDTH 23 0
BBX 20 27 0 0
BITMAP
01C000
01C000
01C000
003800
003800
003800
000000
000000
000000
000000
1FFF00
1FFF00
1FFF00
FE07F0
FE07F0
FE07F0
FE07F0
FE3FF0
FE3FF0
FE3FF0
FFC000
FFC000
FFC000
1FC000
1FF800
1FF800
1FF800
ENDCHAR
STARTCHAR 00E9
ENCODING 233
SWIDTH 517 0
DWIDTH 23 0
BBX 20 27 0 0
BITMAP
003800
003800
003800
01C000
01C000
01C000
000000
000000
000000
000000
1FFF00
1FFF00
1FFF00
FE07F0
FE07F0
FE07F0
FE07F0
FE3FF0
FE3FF0
FE3FF0
FFC000
FFC000
FFC000
1FC000
1FF800
1FF800
1FF800
ENDCHAR
STARTCHAR 00EA
ENCODING 234
SWIDTH 540 0
DWIDTH 24 0
BBX 20 27 0 0
BITMAP
01FC00
01FC00
01FC00
0E0300
0E0300
0E0300
000000
000000
000000
000000
0FFF00
0FFF00
0FFF00
FE03F0
FE03F0
FE03F0
FE03F0
FE3FF0
FE3FF0
FE3FF0
FFC000
FFC000
FFC000
0FC000
0FFC00
0FFC00
0FFC00
ENDCHAR
STARTCHAR 00EB
ENCODING 235
SWIDTH 517 0
DWIDTH 23 0
BBX 20 27 0 0
BITMAP
FE07F0
FE07F0
FE07F0
000000
000000
000000
000000
000000
000000
000000
1FFF00
1FFF00
1FFF00
FE07F0
FE07F0
FE07F0
FE07F0
FE3FF0
FE3FF0
FE3FF0
FFC000
FFC000
FFC000
1FC000
1FF800
1FF800
1FF800
ENDCHAR
STARTCHAR 00EC
ENCODING 236
SWIDTH 225 0
DWIDTH 10 0
BBX 7 27 0 0
BITMAP
E0
E0
E0
1E
0E
0E
00
00
00
00
FE
FE
FE
FE
FE
FE
FE
FE
FE
FE
FE
FE
FE
FE
FE
FE
FE
ENDCHAR
STARTCHAR 00ED
ENCODING 237
SWIDTH 225 0
DWIDTH 10 0
BBX 7 27 0 0
BITMAP
0E
0E
0E
E0
E0
E0
00
00
00
00
FE
FE
FE
FE
FE
FE
FE
FE
FE
FE
FE
FE
FE
FE
FE
FE
FE
ENDCHAR
STARTCHAR 00EE
ENCODING 238
SWIDTH 292 0
DWIDTH 13 0
BBX 13 27 0 0
BITMAP
1FC0
1FC0
1FC0
E038
E038
E038
0000
0000
0000
0000
1FC0
1FC0
1FC0
1FC0
1FC0
1FC0
1FC0
1FC0
1FC0
1FC0
1FC0
1FC0
1FC0
1FC0
1FC0
1FC0
1FC0
ENDCHAR
STARTCHAR 00EF
ENCODING 239
SWIDTH 292 0
DWIDTH 13 0
BBX 13 27 0 0
BITMAP
E038
E038
E038
0000
0000
0000
0000
0000
0000
0000
1FC0
1FC0
1FC0
1FC0
1FC0
1FC0
1FC0
1FC0
1FC0
1FC0
1FC0
1FC0
1FC0
1FC0
1FC0
1FC0
1FC0
ENDCHAR
STARTCHAR 00F0
ENCODING 240
SWIDTH 517 0
DWIDTH 23 0
BBX 20 27 0 0
BITMAP
01FC70
01FC70
01FC70
003F80
003F80
003F80
003F80
01C3F0
01C3F0
01C3F0
003FF0
003FF0
003FF0
0003F0
1FC3F0
1FC3F0
1FC3F0
FE03F0
FE03F0
FE03F0
FE03F0
FE03F0
FE03F0
FE03F0
1FFF80
1FFF80
1FFF80
ENDCHAR
STARTCHAR 00F1
ENCODING 241
SWIDTH 540 0
DWIDTH 24 0
BBX 20 27 0 0
BITMAP
0FC380
0FC380
0FC380
0E3F80
0E3F80
0E3F80
000000
000000
000000
000000
FE3F80
FE3F80
FE3F80
FFC3F0
FFC3F0
FFC3F0
FE03F0
FE03F0
FE03F0
FE03F0
FE03F0
FE03F0
FE03F0
FE03F0
FE03F0
FE03F0
FE03F0
ENDCHAR
STARTCHAR 00F2
ENCODING 242
SWIDTH 517 0
DWIDTH 23 0
BBX 20 27 0 0
BITMAP
01C000
01C000
01C000
003800
003800
003800
000000
000000
000000
000000
1FFF00
1FFF00
1FFF00
FE07F0
FE07F0
FE07F0
FE07F0
FE07F0
FE07F0
FE07F0
FE07F0
FE07F0
FE07F0
1E0700
1FFF00
1FFF00
1FFF00
ENDCHAR
STARTCHAR 00F3
ENCODING 243
SWIDTH 517 0
DWIDTH 23 0
BBX 20 27 0 0
BITMAP
003800
003800
003800
01C000
01C000
01C000
000000
000000
000000
000000
1FFF00
1FFF00
1FFF00
FE07F0
FE07F0
FE07F0
FE07F0
FE07F0
FE07F0
FE07F0
FE07F0
FE07F0
FE07F0
1E0700
1FFF00
1FFF00
1FFF00
ENDCHAR
STARTCHAR 00F4
ENCODING 244
SWIDTH 540 0
DWIDTH 24 0
BBX 20 27 0 0
BITMAP
01FC00
01FC00
01FC00
0E0300
0E0300
0E0300
000000
000000
000000
000000
0FFF00
0FFF00
0FFF00
FE03F0
FE03F0
FE03F0
FE03F0
FE03F0
FE03F0
FE03F0
FE03F0
FE03F0
FE03F0
0E0300
0FFF00
0FFF00
0FFF00
ENDCHAR
STARTCHAR 00F5
ENCODING 245
SWIDTH 517 0
DWIDTH 23 0
BBX 20 27 0 0
BITMAP
0FC700
0FC700
0FC700
0E3F00
0E3F00
0E3F00
000000
000000
000000
000000
0FFF00
0FFF00
0FFF00
FE07F0
FE07F0
FE07F0
FE07F0
FE07F0
FE07F0
FE07F0
FE07F0
FE07F0
FE07F0
0E0700
0FFF00
0FFF00
0FFF00
ENDCHAR
STARTCHAR 00F6
ENCODING 246
SWIDTH 517 0
DWIDTH 23 0
BBX 20 27 0 0
BITMAP
FE07F0
FE07F0
FE07F0
000000
000000
000000
000000
000000
000000
000000
1FFF00
1FFF00
1FFF00
FE07F0
FE07F0
FE07F0
FE07F0
FE07F0
FE07F0
FE07F0
FE07F0
FE07F0
FE07F0
1E0700
1FFF00
1FFF00
1FFF00
ENDCHAR
STARTCHAR 00F7
ENCODING 247
SWIDTH 450 0
DWIDTH 20 0
BBX 17 17 0 7
BITMAP
01C000
01C000
01C000
000000
000000
000000
000000
FFFF80
FFFF80
FFFF80
000000
000000
000000
000000
01C000
01C000
01C000
ENDCHAR
STARTCHAR 00F8
ENCODING 248
SWIDTH 517 0
DWIDTH 23 0
BBX 20 30 0 -7
BITMAP
000070
000070
000070
0007F0
0007F0
0007F0
1FFFF0
1FFFF0
1FFFF0
1E07F0
FE07F0
FE07F0
FE07F0
FFFFF0
FFFFF0
FFFFF0
FE07F0
FE07F0
FE07F0
FE07F0
FFFF80
FFFF80
FFFF80
FE0000
FE0000
FE0000
FE0000
E00000
E00000
E00000
ENDCHAR
STARTCHAR 00F9
ENCODING 249
SWIDTH 517 0
DWIDTH 23 0
BBX 20 27 0 0
BITMAP
01C000
01C000
01C000
003800
003800
003800
000000
000000
000000
000000
FE07F0
FE07F0
FE07F0
FE07F0
FE07F0
FE07F0
FE07F0
FE07F0
FE07F0
FE07F0
FE07F0
FE3FF0
FE3FF0
FE3FF0
1FC7F0
1FC7F0
1FC7F0
ENDCHAR
STARTCHAR 00FA
ENCODING 250
SWIDTH 517 0
DWIDTH 23 0
BBX 20 27 0 0
BITMAP
003800
003800
003800
01C000
01C000
01C000
000000
000000
000000
000000
FE07F0
FE07F0
FE07F0
FE07F0
FE07F0
FE07F0
FE07F0
FE07F0
FE07F0
FE07F0
FE07F0
FE3FF0
FE3FF0
FE3FF0
1FC7F0
1FC7F0
1FC7F0
ENDCHAR
STARTCHAR 00FB
ENCODING 251
SWIDTH 540 0
DWIDTH 24 0
BBX 20 27 0 0
BITMAP
01FC00
01FC00
01FC00
0E0300
0E0300
0E0300
000000
000000
000000
000000
FE03F0
FE03F0
FE03F0
FE03F0
FE03F0
FE03F0
FE03F0
FE03F0
FE03F0
FE03F0
FE03F0
FE1FF0
FE1FF0
FE1FF0
0FE3F0
0FE3F0
0FE3F0
ENDCHAR
STARTCHAR 00FC
ENCODING 252
SWIDTH 517 0
DWIDTH 23 0
BBX 20 27 0 0
BITMAP
FE07F0
FE07F0
FE07F0
000000
000000
000000
000000
000000
000000
000000
FE07F0
FE07F0
FE07F0
FE07F0
FE07F0
FE07F0
FE07F0
FE07F0
FE07F0
FE07F0
FE07F0
FE3FF0
FE3FF0
FE3FF0
1FC7F0
1FC7F0
1FC7F0
ENDCHAR
STARTCHAR 00FD
ENCODING 253
SWIDTH 517 0
DWIDTH 23 0
BBX 20 34 0 -7
BITMAP
003800
003800
003800
000000
01C000
01C000
01C000
000000
000000
000000
FE07F0
FE07F0
FE07F0
FE07F0
FE07F0
FE07F0
FE07F0
FE07F0
FE07F0
FE07F0
FE07F0
FE3FF0
FE3FF0
FE3FF0
1FC7F0
1FC7F0
1FC7F0
0007F0
0007F0
0007F0
000780
01FF80
01FF80
01FF80
ENDCHAR
STARTCHAR 00FE
ENCODING 254
SWIDTH 517 0
DWIDTH 23 0
BBX 20 34 0 -4
BITMAP
FE0000
FE0000
FE0000
FE0000
FE0000
FE0000
FE0000
FE3F80
FE3F80
FE3F80
FFC7F0
FFC7F0
FFC7F0
FE07F0
FE07F0
FE07F0
FE07F0
FE07F0
FE07F0
FE07F0
FFC7F0
FFC7F0
FFC7F0
FE4780
FE3F80
FE3F80
FE3F80
FE0000
FE0000
FE0000
FE0000
FE0000
FE0000
FE0000
ENDCHAR
STARTCHAR 00FF
ENCODING 255
SWIDTH 517 0
DWIDTH 23 0
BBX 20 34 0 -7
BITMAP
FE07F0
FE07F0
FE07F0
000000
000000
000000
000000
000000
000000
000000
FE07F0
FE07F0
FE07F0
FE07F0
FE07F0
FE07F0
FE07F0
FE07F0
FE07F0
FE07F0
FE07F0
FE3FF0
FE3FF0
FE3FF0
1FC7F0
1FC7F0
1FC7F0
0007F0
0007F0
0007F0
000780
01FF80
01FF80
01FF80
ENDCHAR
STARTCHAR 0152
ENCODING 338
SWIDTH 810 0
DWIDTH 36 0
BBX 33 27 0 0
BITMAP
1FFFFFFC00
1FFFFFFC00
1FFFFFFC00
FE07F01F80
FE07F01F80
FE07F01F80
FE07F00000
FE07F00000
FE07F00000
FE07F00000
FE07FFE000
FE07FFE000
FE07FFE000
FE07F00000
FE07F00000
FE07F00000
FE07F00000
FE07F00000
FE07F00000
FE07F00000
FE07F01F80
FE07F01F80
FE07F01F80
1E07F01C00
1FFFFFFC00
1FFFFFFC00
1FFFFFFC00
ENDCHAR
STARTCHAR 0153
ENCODING 339
SWIDTH 810 0
DWIDTH 36 0
BBX 33 17 0 0
BITMAP
1FFFFFFC00
1FFFFFFC00
1FFFFFFC00
FE07F03F80
FE07F03F80
FE07F03F80
FE07F03F80
FE07F1FF80
FE07F1FF80
FE07F1FF80
FE07FE0000
FE07FE0000
FE07FE0000
1E07FE0000
1FFFFFC000
1FFFFFC000
1FFFFFC000
ENDCHAR
STARTCHAR 0160
ENCODING 352
SWIDTH 540 0
DWIDTH 24 0
BBX 20 34 0 0
BITMAP
0E0380
0E0380
0E0380
01FC00
01FC00
01FC00
01FC00
0FFF80
0FFF80
0FFF80
FE03F0
FE03F0
FE03F0
FE0000
FE0000
FE0000
FE0000
FE1F80
FE1F80
FE1F80
0E0380
0FE3F0
0FE3F0
0FE3F0
0003F0
0003F0
0003F0
FE03F0
FE03F0
FE03F0
0E0380
0FFF80
0FFF80
0FFF80
ENDCHAR
STARTCHAR 0161
ENCODING 353
SWIDTH 540 0
DWIDTH 24 0
BBX 20 27 0 0
BITMAP
0E0300
0E0300
0E0300
01FC00
01FC00
01FC00
000000
000000
000000
000000
0FFFF0
0FFFF0
0FFFF0
FE0000
FE0000
FE0000
FE0000
FFFFF0
FFFFF0
FFFFF0
0003F0
0003F0
0003F0
0003F0
FFFF00
FFFF00
FFFF00
ENDCHAR
STARTCHAR 0178
ENCODING 376
SWIDTH 517 0
DWIDTH 23 0
BBX 20 34 0 0
BITMAP
FE07F0
FE07F0
FE07F0
000000
000000
000000
000000
FE07F0
FE07F0
FE07F0
FE07F0
FE07F0
FE07F0
FE07F0
FE07F0
FE07F0
FE07F0
FE3FF0
FE3FF0
FE3FF0
1E07F0
1FC7F0
1FC7F0
1FC7F0
0007F0
0007F0
0007F0
0007F0
0007F0
0007F0
0007F0
01FF80
01FF80
01FF80
ENDCHAR
STARTCHAR 0192
ENCODING 402
SWIDTH 585 0
DWIDTH 26 0
BBX 23 27 0 0
BITMAP
01FFF0
01FFF0
01FFF0
1FC0FE
1FC0FE
1FC0FE
1FC000
1FC000
1FC000
1FC000
FFF800
FFF800
FFF800
1FC000
1FC000
1FC000
1FC000
1FC000
1FC000
1FC000
1FC000
1FC000
1FC000
1FC000
FE0000
FE0000
FE0000
ENDCHAR
STARTCHAR 02C6
ENCODING 710
SWIDTH 360 0
DWIDTH 16 0
BBX 13 7 0 27
BITMAP
1FC0
1FC0
1FC0
0040
E038
E038
E038
ENDCHAR
STARTCHAR 02DC
ENCODING 732
SWIDTH 360 0
DWIDTH 16 0
BBX 13 7 0 27
BITMAP
FE38
FE38
FE38
E238
E1F8
E1F8
E1F8
ENDCHAR
STARTCHAR 2013
ENCODING 8211
SWIDTH 360 0
DWIDTH 16 0
BBX 13 3 0 14
BITMAP
FFF8
FFF8
FFF8
ENDCHAR
STARTCHAR 2014
ENCODING 8212
SWIDTH 517 0
DWIDTH 23 0
BBX 20 3 0 14
BITMAP
FFFFF0
FFFFF0
FFFFF0
ENDCHAR
STARTCHAR 2018
ENCODING 8216
SWIDTH 225 0
DWIDTH 10 0
BBX 7 10 0 20
BITMAP
E0
E0
E0
FE
FE
FE
FE
FE
FE
FE
ENDCHAR
STARTCHAR 2019
ENCODING 8217
SWIDTH 225 0
DWIDTH 10 0
BBX 6 10 1 17
BITMAP
FC
FC
FC
FC
FC
FC
FC
1C
1C
1C
ENDCHAR
STARTCHAR 201A
ENCODING 8218
SWIDTH 225 0
DWIDTH 10 0
BBX 6 10 1 -7
BITMAP
FC
FC
FC
FC
FC
FC
FC
1C
1C
1C
ENDCHAR
STARTCHAR 201C
ENCODING 8220
SWIDTH 450 0
DWIDTH 20 0
BBX 17 10 0 20
BITMAP
E03800
E03800
E03800
FE3F80
FE3F80
FE3F80
FE3F80
FE3F80
FE3F80
FE3F80
ENDCHAR
STARTCHAR 201D
ENCODING 8221
SWIDTH 427 0
DWIDTH 19 0
BBX 15 10 1 17
BITMAP
FC7E
FC7E
FC7E
FC7E
FC7E
FC7E
FC7E
1C0E
1C0E
1C0E
ENDCHAR
STARTCHAR 201E
ENCODING 8222
SWIDTH 427 0
DWIDTH 19 0
BBX 15 10 1 -7
BITMAP
FC7E
FC7E
FC7E
FC7E
FC7E
FC7E
FC7E
1C0E
1C0E
1C0E
ENDCHAR
STARTCHAR 2020
ENCODING 8224
SWIDTH 517 0
DWIDTH 23 0
BBX 20 27 0 0
BITMAP
01FC00
01FC00
01FC00
01FC00
01FC00
01FC00
01FC00
FFFFF0
FFFFF0
FFFFF0
01FC00
01FC00
01FC00
01FC00
01FC00
01FC00
01FC00
01FC00
01FC00
01FC00
01FC00
01FC00
01FC00
01FC00
01FC00
01FC00
01FC00
ENDCHAR
STARTCHAR 2021
ENCODING 8225
SWIDTH 517 0
DWIDTH 23 0
BBX 20 27 0 0
BITMAP
01FC00
01FC00
01FC00
01FC00
01FC00
01FC00
01FC00
FFFFF0
FFFFF0
FFFFF0
01FC00
01FC00
01FC00
01FC00
01FC00
01FC00
01FC00
FFFFF0
FFFFF0
FFFFF0
01FC00
01FC00
01FC00
01FC00
01FC00
01FC00
01FC00
ENDCHAR
STARTCHAR 2022
ENCODING 8226
SWIDTH 450 0
DWIDTH 20 0
BBX 17 17 0 7
BITMAP
01C000
01C000
01C000
01C000
0FFC00
0FFC00
0FFC00
FFFF80
FFFF80
FFFF80
0FFC00
0FFC00
0FFC00
0FFC00
01C000
01C000
01C000
ENDCHAR
STARTCHAR 2026
ENCODING 8230
SWIDTH 675 0
DWIDTH 30 0
BBX 27 3 0 0
BITMAP
FE3F8FE0
FE3F8FE0
FE3F8FE0
ENDCHAR
STARTCHAR 2030
ENCODING 8240
SWIDTH 810 0
DWIDTH 36 0
BBX 33 27 0 0
BITMAP
FFC07F0000
FFC07F0000
FFC07F0000
E1C3F00000
E1C3F00000
E1C3F00000
E1C3F00000
FFC3F00000
FFC3F00000
FFC3F00000
003F800000
003F800000
003F800000
003F800000
003F800000
003F800000
003F800000
01FC7FFF80
01FC7FFF80
01FC7FFF80
01FC70C380
01FC70C380
01FC70C380
01FC70C380
1FC07FFF80
1FC07FFF80
1FC07FFF80
ENDCHAR
STARTCHAR 2039
ENCODING 8249
SWIDTH 292 0
DWIDTH 13 0
BBX 10 10 0 10
BITMAP
1FC0
1FC0
1FC0
FE00
FE00
FE00
1E00
1FC0
1FC0
1FC0
ENDCHAR
STARTCHAR 203A
ENCODING 8250
SWIDTH 292 0
DWIDTH 13 0
BBX 10 10 0 10
BITMAP
FE00
FE00
FE00
1FC0
1FC0
1FC0
1E00
FE00
FE00
FE00
ENDCHAR
STARTCHAR 2122
ENCODING 8482
SWIDTH 450 0
DWIDTH 20 0
BBX 17 26 0 0
BITMAP
FFFF80
FFFF80
FFFF80
01C000
01C000
01C000
01C000
01C000
01C000
01C000
01C000
01C000
01C000
E00780
E00780
E00780
FE3F80
FE3F80
FE3F80
E1C780
E1C780
E1C780
E1C780
E00780
E00780
E00780
ENDCHAR
STARTCHAR 2219
ENCODING 8729
SWIDTH 292 0
DWIDTH 13 0
BBX 10 10 0 10
BITMAP
FFC0
FFC0
FFC0
FFC0
FFC0
FFC0
FFC0
FFC0
FFC0
FFC0
ENDCHAR
STARTCHAR E000
ENCODING 57344
SWIDTH 0 0
DWIDTH 0 0
BBX 0 0 0 0
BITMAP
ENDCHAR
STARTCHAR E001
ENCODING 57345
SWIDTH 495 0
DWIDTH 22 0
BBX 0 0 0 0
BITMAP
ENDCHAR
ENDFONT
